<?xml version="1.0" standalone="no"?>
<!DOCTYPE svg PUBLIC "-//W3C//DTD SVG 20010904//EN"
 "http://www.w3.org/TR/2001/REC-SVG-20010904/DTD/svg10.dtd">
<svg version="1.0" xmlns="http://www.w3.org/2000/svg"
 width="512.000000pt" height="512.000000pt" viewBox="0 0 512.000000 512.000000"
 preserveAspectRatio="xMidYMid meet">
<metadata>
Created by potrace 1.14, written by Peter Selinger 2001-2017
</metadata>
<g transform="translate(0.000000,512.000000) scale(0.100000,-0.100000)"
fill="#000000" stroke="none">
<path d="M2309 5103 c-9 -10 -15 -11 -26 -2 -11 10 -12 8 -7 -6 5 -13 4 -16
-4 -11 -7 4 -15 1 -18 -8 -3 -9 -12 -16 -20 -16 -8 0 -14 -5 -14 -11 0 -5 -4
-7 -10 -4 -9 6 -14 -8 -11 -27 0 -5 -2 -7 -6 -7 -5 1 -17 1 -28 0 -14 -1 -16
-4 -8 -9 10 -6 10 -12 -2 -28 -15 -19 -15 -19 -10 1 3 11 1 9 -6 -5 -6 -14
-16 -35 -22 -47 -5 -12 -13 -20 -18 -18 -4 3 -6 -6 -4 -20 1 -14 -1 -25 -6
-25 -4 0 -6 -8 -4 -18 2 -13 -7 -23 -31 -34 -23 -10 -34 -12 -34 -4 0 8 -3 8
-8 0 -14 -21 -41 -23 -63 -3 -20 17 -19 24 3 20 4 0 5 6 2 14 -4 8 -11 12 -18
8 -6 -4 -6 -1 2 9 7 9 11 29 10 46 -1 16 4 38 12 48 9 11 10 15 3 10 -7 -4
-13 -3 -13 1 0 5 9 14 21 21 20 13 20 14 3 33 -11 12 -21 16 -27 10 -5 -5 -16
-7 -25 -4 -11 5 -13 3 -7 -8 8 -12 6 -12 -8 0 -14 11 -18 11 -23 -2 -3 -9 -14
-14 -25 -12 -10 2 -18 1 -18 -3 3 -21 -3 -31 -16 -26 -8 4 -17 -1 -21 -10 -3
-9 -11 -13 -17 -9 -7 4 -8 0 -3 -12 5 -15 4 -16 -9 -5 -13 11 -14 10 -10 -2 4
-9 -3 -19 -17 -27 -17 -9 -18 -10 -3 -6 20 6 20 6 0 -13 -11 -11 -23 -18 -27
-15 -5 2 -8 -6 -8 -17 0 -16 -4 -20 -16 -16 -14 5 -15 4 -4 -9 8 -10 9 -15 1
-15 -6 0 -11 -7 -11 -16 0 -8 -4 -13 -9 -10 -5 4 -7 -4 -3 -16 3 -14 1 -19 -6
-14 -7 4 -10 -1 -7 -14 2 -12 -2 -23 -10 -27 -8 -3 -12 -9 -9 -14 3 -5 11 -7
17 -3 7 3 2 -4 -11 -15 -13 -11 -22 -23 -22 -26 1 -4 -2 -10 -6 -13 -4 -4 -4
-1 0 6 4 7 1 12 -9 12 -9 0 -14 -4 -11 -8 3 -5 -1 -9 -9 -9 -8 0 -12 4 -10 8
7 10 -21 30 -30 21 -4 -4 -2 3 4 15 10 19 9 22 -5 16 -12 -4 -15 -2 -12 8 3 8
-2 20 -11 27 -13 11 -13 12 -1 6 12 -6 13 -4 3 7 -16 16 -17 33 -2 23 6 -3 3
6 -7 22 -11 15 -14 25 -7 21 6 -4 14 -3 18 3 3 5 0 10 -7 10 -9 0 -9 3 2 10
10 6 11 10 3 10 -7 0 -13 5 -13 11 0 5 4 8 9 5 11 -7 9 13 -2 32 -11 17 -30 4
-23 -17 5 -13 4 -13 -8 2 -13 17 -14 17 -20 0 -6 -15 -8 -15 -16 -3 -6 9 -10
10 -10 3 0 -6 -9 -15 -20 -18 -11 -4 -27 -18 -35 -33 l-16 -27 5 25 c5 23 4
23 -6 -2 -7 -16 -16 -28 -21 -28 -4 0 -5 6 -1 13 4 6 3 8 -1 4 -14 -12 -15
-38 -2 -31 7 4 -4 -8 -23 -25 -19 -17 -31 -31 -27 -31 4 0 3 -10 -4 -21 -7
-15 -8 -19 0 -15 12 8 4 -21 -11 -40 -4 -6 -10 -36 -12 -67 -3 -31 -8 -62 -12
-69 -6 -10 -5 -10 7 -1 13 10 14 7 11 -22 -3 -21 -8 -32 -15 -28 -6 4 -8 0 -4
-10 4 -12 -4 -21 -31 -33 -20 -10 -41 -20 -47 -23 -5 -2 -5 2 2 10 10 12 8 15
-8 16 -11 1 -17 -2 -14 -8 10 -15 -2 -10 -16 8 -8 9 -9 14 -3 10 6 -3 11 0 11
8 0 11 -5 12 -20 3 -12 -6 -17 -6 -13 0 3 5 -1 15 -9 22 -8 7 -15 23 -15 37 0
17 -4 22 -12 17 -8 -5 -7 0 2 11 9 11 10 16 3 11 -9 -5 -13 1 -14 18 -1 14 -2
32 -3 39 -1 6 2 18 7 25 7 9 6 11 -7 6 -19 -7 -21 6 -4 25 10 11 10 13 1 7 -7
-4 -13 -3 -13 2 0 6 -11 9 -24 8 -19 -1 -22 -4 -13 -14 6 -7 6 -12 1 -11 -27
5 -46 -2 -41 -15 4 -11 1 -13 -11 -9 -15 6 -16 5 -2 -12 10 -13 11 -16 2 -11
-21 13 -50 -21 -47 -55 2 -22 0 -27 -10 -19 -8 7 -11 5 -10 -8 0 -9 4 -23 8
-30 6 -8 3 -10 -9 -5 -12 4 -15 3 -10 -5 4 -7 2 -12 -5 -12 -7 0 -4 -7 7 -16
10 -8 14 -13 8 -10 -14 7 -27 -21 -14 -29 9 -6 8 -31 -3 -41 -10 -11 -8 -26 2
-19 10 6 7 -27 -4 -44 -3 -6 3 -14 12 -20 10 -6 13 -11 7 -11 -6 0 -11 -7 -11
-15 0 -8 5 -11 10 -8 6 4 8 0 4 -10 -3 -10 -2 -17 3 -17 6 0 10 -12 10 -26 0
-14 -4 -22 -10 -19 -6 3 -7 -1 -4 -10 5 -13 9 -13 23 -3 14 12 15 11 2 -4 -7
-10 -22 -18 -33 -18 -18 0 -19 -2 -7 -17 12 -15 12 -16 -3 -10 -12 4 -18 2
-18 -8 0 -9 -6 -12 -17 -8 -10 4 -14 2 -10 -4 3 -5 0 -10 -8 -10 -8 0 -15 4
-15 9 0 4 -8 8 -17 8 -9 0 -14 2 -11 5 3 3 -7 19 -23 36 -17 19 -26 36 -22 46
4 10 2 14 -4 10 -5 -3 -9 3 -8 16 1 12 -3 28 -9 36 -7 10 -7 13 0 8 7 -4 10 5
9 25 -1 30 -22 47 -50 43 -18 -3 -60 -24 -49 -24 6 -1 11 -8 11 -16 0 -8 -4
-12 -9 -9 -4 3 -8 0 -8 -6 0 -6 -5 -8 -12 -4 -8 5 -8 2 1 -10 12 -14 12 -17 1
-14 -9 2 -15 -7 -16 -22 -3 -37 -15 -70 -24 -65 -5 3 -6 -5 -2 -17 4 -15 2
-19 -7 -13 -10 6 -10 3 0 -16 12 -23 11 -23 -6 -9 -17 14 -17 14 -7 -6 8 -14
8 -24 1 -31 -8 -8 -7 -13 2 -18 8 -6 10 -4 4 5 -5 9 -4 11 4 6 8 -6 9 -12 2
-20 -7 -9 -7 -17 2 -26 9 -10 9 -11 0 -6 -8 4 -13 1 -13 -8 0 -9 6 -16 13 -16
9 0 8 -3 -2 -9 -11 -7 -11 -9 0 -14 11 -4 11 -6 1 -6 -10 -1 -10 -5 2 -16 8
-9 13 -22 10 -30 -4 -8 -1 -15 5 -15 6 0 8 -7 5 -15 -4 -8 1 -17 10 -21 12 -5
14 -10 6 -19 -8 -10 -5 -17 12 -29 18 -13 20 -18 9 -28 -11 -11 -12 -10 -6 1
6 10 4 12 -4 7 -9 -6 -9 -11 0 -22 8 -10 8 -14 0 -14 -6 0 -10 -6 -9 -12 2 -8
-6 -13 -19 -12 -18 0 -20 -2 -12 -13 9 -10 7 -13 -10 -13 -12 0 -24 7 -27 15
-4 10 -14 14 -28 10 -11 -2 -15 -2 -8 1 10 5 9 10 -5 21 -10 8 -12 11 -4 7 10
-5 12 -3 7 5 -6 9 -11 9 -21 1 -11 -10 -13 -8 -10 9 2 12 1 20 -3 17 -4 -2
-12 2 -19 9 -10 11 -10 15 0 18 7 3 6 6 -4 6 -9 1 -19 10 -22 21 -3 13 -1 18
6 13 8 -4 8 -2 0 9 -7 8 -9 18 -5 23 4 4 -3 5 -16 2 -12 -3 -20 -1 -17 3 3 5
0 12 -6 16 -7 4 -9 3 -5 -4 3 -6 2 -13 -4 -17 -6 -4 -8 -11 -5 -16 4 -5 -1 -9
-9 -9 -8 0 -18 -5 -22 -12 -5 -7 -3 -8 7 -3 12 8 12 6 1 -8 -8 -9 -10 -22 -6
-29 6 -10 5 -11 -7 -1 -14 11 -16 8 -14 -18 1 -24 -1 -29 -14 -24 -13 5 -14 4
-3 -6 16 -17 16 -32 0 -23 -8 5 -7 0 2 -11 9 -11 10 -16 2 -11 -6 4 -12 3 -12
-3 0 -5 6 -11 13 -14 9 -3 9 -7 -2 -20 -11 -14 -11 -17 0 -17 11 0 11 -2 -1
-10 -8 -5 -10 -10 -4 -10 7 0 15 -7 18 -16 3 -8 2 -12 -4 -9 -6 3 -10 1 -10
-4 0 -6 4 -11 10 -11 5 0 6 -7 3 -17 -5 -12 -3 -14 8 -8 11 7 11 5 -1 -10 -9
-11 -10 -16 -2 -11 11 6 18 -18 13 -46 0 -5 4 -8 10 -8 5 0 7 -4 4 -10 -3 -5
2 -10 12 -11 10 0 13 -3 6 -6 -10 -3 -10 -7 0 -18 7 -7 16 -10 21 -7 5 3 7 -2
3 -11 -3 -10 -2 -17 4 -17 15 0 35 -23 34 -40 -1 -8 -7 -14 -13 -12 -10 2 -10
-3 -3 -17 6 -10 8 -21 5 -24 -3 -3 -7 -12 -8 -21 -1 -9 -6 -16 -11 -15 -4 0
-12 -5 -16 -13 -7 -11 -9 -11 -9 1 0 8 -6 11 -16 7 -10 -4 -22 1 -31 11 -9 12
-12 13 -8 3 4 -8 -1 -6 -9 4 -10 12 -16 15 -16 7 0 -7 -9 -3 -21 10 -11 13
-17 18 -14 11 6 -11 3 -12 -14 -3 -11 7 -21 16 -21 22 0 6 -4 7 -10 4 -6 -4
-7 1 -3 11 4 12 3 15 -5 10 -7 -4 -12 -1 -12 9 0 9 -4 13 -10 10 -5 -3 -10 -3
-10 2 0 4 -11 9 -25 9 -21 2 -24 -1 -14 -13 7 -8 8 -13 3 -12 -26 5 -36 -1
-25 -14 8 -10 7 -17 -2 -27 -10 -10 -9 -12 3 -6 8 4 6 0 -4 -8 -18 -15 -15
-21 8 -17 5 1 4 -5 -4 -13 -7 -9 -9 -16 -4 -16 5 0 2 -5 -6 -10 -11 -7 -11
-10 -2 -10 7 0 10 -5 7 -10 -3 -6 1 -13 10 -16 14 -6 14 -8 -2 -20 -17 -13
-17 -14 1 -7 15 5 18 3 13 -10 -4 -10 -1 -17 6 -17 8 0 6 -4 -3 -10 -13 -8
-13 -10 1 -10 9 0 23 -8 30 -17 10 -11 10 -14 2 -9 -9 5 -13 1 -13 -10 0 -10
3 -14 6 -11 9 9 50 -45 46 -60 -2 -8 3 -12 10 -11 7 2 12 -5 12 -14 -1 -11 5
-15 18 -13 10 2 17 1 14 -3 -6 -10 21 -32 30 -24 4 4 4 -2 0 -12 -5 -14 -4
-16 6 -8 10 8 13 3 12 -21 -1 -18 -2 -34 -3 -37 -7 -15 -7 -50 1 -50 4 0 8 -5
8 -11 0 -5 -4 -7 -10 -4 -5 3 -10 1 -10 -6 0 -8 -4 -8 -15 1 -13 11 -14 10 -9
-3 5 -14 1 -14 -38 -2 -24 7 -42 18 -40 25 1 6 -2 9 -8 5 -6 -3 -7 -12 -3 -18
4 -7 0 -7 -10 1 -9 8 -21 11 -26 7 -7 -4 -8 1 -4 11 4 11 3 15 -5 10 -6 -3
-15 2 -21 11 -7 13 -10 14 -11 4 0 -9 -7 -6 -20 9 -11 13 -20 18 -20 12 0 -6
-6 -9 -14 -6 -10 4 -14 0 -12 -13 2 -10 -2 -21 -8 -25 -7 -5 -6 -8 4 -9 10 0
8 -3 -5 -9 -18 -8 -18 -9 -2 -9 14 -1 16 -5 7 -20 -7 -15 -6 -23 5 -35 11 -11
12 -16 2 -19 -9 -4 -9 -6 1 -6 7 -1 10 -5 7 -11 -3 -5 -2 -10 4 -10 5 0 8 -9
6 -20 -2 -11 0 -18 6 -15 5 4 9 -1 9 -9 0 -9 5 -16 10 -16 6 0 10 -9 10 -21 0
-11 5 -17 10 -14 6 3 10 -1 10 -9 0 -9 5 -16 11 -16 5 0 7 -5 3 -12 -4 -7 -3
-8 5 -4 7 5 20 -3 32 -19 18 -22 23 -24 37 -13 12 10 14 10 8 1 -4 -8 -1 -13
8 -13 9 0 16 -4 16 -10 0 -12 22 -9 33 5 5 6 5 0 2 -12 -5 -19 -3 -22 11 -16
15 5 16 1 11 -35 -3 -23 -1 -40 3 -37 5 3 5 -8 0 -24 -4 -16 -5 -33 -2 -37 4
-4 1 -4 -7 1 -8 4 -17 2 -22 -6 -6 -10 -9 -11 -9 -1 0 6 -7 12 -16 12 -8 0
-12 -5 -9 -10 4 -6 -4 -5 -19 1 -14 7 -23 16 -19 21 3 6 -5 4 -18 -3 -23 -12
-23 -11 -9 6 9 11 10 16 3 11 -8 -4 -13 -2 -13 6 0 9 -3 9 -10 -2 -6 -10 -10
-11 -10 -2 0 6 -7 12 -16 12 -9 0 -18 9 -21 20 -3 11 -14 20 -24 20 -11 0 -22
0 -26 0 -5 0 -8 -3 -8 -7 0 -5 -4 -13 -8 -20 -4 -6 0 -19 9 -27 10 -10 11 -16
3 -16 -8 0 -8 -5 2 -17 12 -15 12 -16 -5 -9 -20 7 -20 7 0 -15 10 -12 14 -20
8 -16 -6 3 -11 0 -11 -8 0 -8 4 -12 9 -9 4 3 8 -2 8 -10 0 -9 4 -16 9 -16 4 0
7 -12 5 -26 -1 -15 3 -28 12 -31 8 -3 14 -9 14 -14 0 -17 89 -97 95 -85 3 6 3
1 1 -10 -2 -15 1 -21 13 -20 9 0 15 -4 14 -11 -2 -8 4 -10 14 -6 10 4 14 2 10
-4 -5 -7 1 -9 15 -5 16 4 19 2 13 -9 -5 -8 -5 -11 0 -7 4 4 15 2 23 -5 13 -10
14 -9 7 2 -6 11 -4 13 9 8 10 -4 20 -7 22 -7 2 0 4 -6 4 -13 0 -8 10 -19 23
-25 12 -6 16 -11 10 -11 -7 -1 -13 -8 -13 -17 0 -8 4 -12 10 -9 6 3 7 -1 4 -9
-3 -9 -11 -13 -16 -10 -6 4 -5 -4 2 -16 7 -13 8 -20 2 -16 -6 3 -14 2 -17 -4
-4 -6 -14 -10 -23 -9 -30 3 -43 -1 -38 -9 3 -5 -1 -9 -9 -9 -8 0 -12 4 -9 9 6
10 -26 6 -45 -6 -9 -6 -12 -5 -8 0 9 16 -27 34 -44 22 -11 -8 -11 -9 3 -4 10
3 20 1 22 -3 11 -17 -34 -5 -58 16 -24 21 -30 21 -27 1 0 -4 -5 -5 -13 -2 -9
3 -13 -3 -12 -18 2 -31 15 -50 29 -41 7 4 6 0 -2 -10 -8 -11 -9 -17 -3 -17 7
0 9 -7 5 -17 -4 -10 -2 -14 4 -10 5 4 19 -1 29 -9 10 -9 13 -13 7 -9 -7 3 -13
1 -13 -4 0 -10 14 -15 32 -12 4 0 5 -6 2 -14 -4 -9 0 -15 8 -15 19 0 50 -34
41 -45 -5 -4 -2 -5 5 -1 6 4 12 2 12 -4 0 -6 4 -9 9 -6 5 3 11 -1 15 -9 3 -8
15 -15 26 -15 11 0 23 -7 27 -16 5 -13 7 -13 14 -2 7 10 9 9 9 -4 0 -10 5 -18
11 -18 5 0 7 6 3 13 -6 10 -4 10 7 0 17 -16 33 -17 23 -1 -4 7 8 1 26 -12 30
-22 33 -22 26 -4 -5 14 -4 16 5 7 6 -6 18 -9 27 -6 11 5 13 3 7 -7 -6 -10 -3
-12 14 -7 17 4 20 3 11 -8 -8 -9 -6 -14 5 -19 11 -4 14 -12 10 -27 -4 -12 -3
-19 2 -16 5 3 9 -7 8 -23 0 -22 -4 -27 -22 -25 -12 1 -19 -3 -17 -9 2 -6 -5
-17 -17 -25 -19 -11 -21 -11 -16 4 4 9 3 14 -3 10 -6 -3 -10 -12 -10 -20 0 -8
-5 -17 -12 -21 -7 -4 -8 -3 -4 4 4 7 1 12 -9 12 -10 0 -13 -5 -9 -12 5 -9 2
-9 -9 1 -13 10 -17 10 -17 1 0 -9 -4 -9 -17 1 -15 12 -16 12 -8 -1 7 -12 6
-13 -7 -3 -8 7 -18 10 -21 6 -4 -3 -7 0 -7 7 0 9 -5 8 -13 -5 -11 -14 -16 -15
-22 -5 -5 9 -4 11 3 6 7 -4 12 -3 12 2 0 19 -14 21 -26 4 -17 -21 -18 -36 -2
-26 8 5 9 2 4 -11 -5 -14 0 -25 16 -38 13 -10 17 -16 11 -12 -7 3 -13 1 -13
-4 0 -6 7 -11 16 -11 8 0 12 -5 9 -10 -3 -5 3 -10 15 -10 12 0 18 -4 15 -10
-6 -9 8 -14 28 -11 4 0 7 -9 7 -22 0 -18 2 -19 10 -7 6 10 10 11 10 3 0 -7 9
-13 20 -13 11 0 20 -5 20 -11 0 -5 4 -8 9 -4 5 3 17 -2 25 -11 9 -9 16 -11 16
-4 0 7 6 5 16 -4 19 -19 28 -21 18 -3 -6 9 -5 9 7 0 12 -10 18 -10 28 0 10 9
11 9 6 -4 -8 -20 33 -19 46 2 7 12 9 11 9 -2 0 -9 7 -16 15 -16 8 0 12 5 8 10
-3 5 4 6 17 2 17 -5 21 -4 14 6 -4 7 7 3 24 -10 28 -20 31 -20 27 -4 -3 10 -1
8 6 -5 7 -12 17 -22 23 -22 6 0 4 -5 -4 -10 -13 -8 -13 -10 2 -10 12 0 15 -5
11 -17 -4 -11 -3 -14 5 -9 7 4 12 2 12 -3 0 -6 -4 -11 -10 -11 -5 0 -6 -7 -3
-17 4 -10 2 -14 -5 -9 -6 3 -13 2 -17 -4 -3 -5 -2 -10 4 -10 6 0 8 -6 5 -14
-3 -8 -12 -12 -20 -9 -8 3 -14 -1 -14 -10 0 -24 -43 -47 -64 -35 -14 8 -17 7
-12 -1 7 -10 -5 -15 -30 -12 -6 1 -17 -6 -24 -14 -9 -11 -16 -12 -25 -5 -10 8
-15 7 -21 -1 -4 -7 -2 -15 5 -17 9 -3 9 -7 -1 -20 -11 -13 -11 -14 2 -10 18 6
44 -18 35 -32 -4 -6 1 -7 11 -3 12 4 15 3 10 -6 -6 -8 -2 -11 10 -9 12 2 18
-2 16 -10 -1 -8 2 -11 8 -7 6 3 24 -1 42 -9 17 -9 46 -16 65 -16 19 0 32 -4
29 -9 -4 -5 2 -8 11 -6 10 2 18 4 18 5 0 1 8 3 18 5 10 2 17 -3 17 -13 0 -15
2 -15 10 -2 5 8 12 11 16 7 4 -4 13 -2 21 4 9 8 17 8 26 0 11 -8 19 -5 36 15
12 13 26 22 31 19 5 -3 21 2 35 11 23 15 25 15 19 0 -3 -9 -2 -16 4 -16 5 0
24 -13 42 -30 18 -16 37 -27 44 -23 6 3 2 -4 -9 -17 -12 -14 -14 -20 -5 -15
12 7 13 6 3 -6 -10 -12 -10 -18 0 -28 9 -10 9 -11 -4 -6 -10 4 -20 1 -25 -6
-4 -8 -3 -10 4 -5 8 5 10 2 6 -8 -3 -9 -11 -13 -16 -10 -6 4 -8 1 -6 -7 7 -19
-10 -49 -27 -49 -8 0 -14 -5 -12 -12 1 -7 -5 -12 -13 -13 -8 0 -16 -6 -16 -12
-3 -24 -4 -25 -18 -14 -11 9 -16 9 -22 0 -5 -8 -3 -9 6 -4 9 6 11 4 6 -4 -5
-7 -15 -10 -24 -6 -9 3 -13 3 -10 -1 4 -4 3 -15 -3 -25 -8 -15 -6 -19 6 -19 9
0 14 -4 11 -9 -6 -8 6 -16 29 -20 6 -1 21 -9 34 -18 17 -11 21 -11 15 -2 -6
12 -5 12 9 0 12 -9 17 -10 17 -2 0 7 5 9 10 6 22 -14 60 -15 60 -3 0 10 2 10
9 -1 7 -10 13 -11 31 -1 12 7 20 7 16 2 -11 -18 24 -6 40 14 8 10 13 13 9 6
-3 -6 -1 -12 4 -12 6 0 11 5 11 11 0 5 5 7 10 4 6 -3 10 -2 10 3 0 6 8 9 17 8
10 0 18 4 18 11 0 6 4 15 9 20 5 5 6 3 2 -4 -4 -7 -2 -13 3 -13 6 0 11 4 11 9
0 5 12 14 28 19 15 6 21 11 14 11 -7 1 -10 6 -7 11 4 7 13 6 27 -1 15 -8 19
-8 14 0 -4 6 -2 11 3 11 6 0 11 -6 11 -14 0 -9 7 -12 20 -9 12 3 20 0 20 -6 0
-7 8 -11 17 -9 13 2 17 -5 19 -29 0 -18 -3 -30 -7 -27 -8 5 -14 -18 -10 -39 1
-5 -3 -6 -9 -2 -5 3 -10 1 -10 -5 0 -7 -7 -9 -16 -6 -15 6 -15 4 -3 -10 12
-15 12 -17 -1 -12 -8 3 -21 -2 -28 -11 -8 -9 -11 -11 -8 -6 2 6 -4 11 -14 11
-14 0 -16 -4 -9 -13 8 -9 5 -11 -11 -8 -17 3 -20 0 -16 -12 6 -14 4 -14 -11
-2 -11 9 -14 10 -9 2 4 -7 3 -13 -3 -13 -5 0 -12 6 -14 13 -3 7 -6 7 -6 1 -1
-6 8 -21 19 -34 11 -13 20 -27 20 -32 0 -5 5 -6 10 -3 6 4 17 1 25 -5 11 -9
15 -9 15 -1 0 6 5 11 11 11 6 0 9 -6 6 -12 -3 -8 6 -14 24 -15 16 -1 35 -2 42
-3 6 -1 29 1 49 3 21 3 36 1 33 -3 -3 -5 4 -6 15 -3 11 3 23 10 26 15 3 5 12
4 20 -3 11 -9 14 -8 14 7 0 14 2 16 9 6 6 -11 10 -10 15 4 6 16 8 16 16 4 8
-12 10 -12 10 -1 0 7 6 11 15 7 8 -3 14 -2 12 2 -1 4 2 8 7 9 5 1 12 7 17 15
5 7 13 13 19 13 6 0 14 5 18 11 4 6 17 16 28 22 18 9 25 8 38 -7 10 -11 28
-18 42 -16 30 3 54 -22 29 -31 -13 -5 -14 -9 -3 -16 10 -7 10 -11 -4 -22 -20
-15 -25 -31 -6 -20 7 4 8 3 4 -4 -4 -7 -13 -12 -21 -12 -7 0 -16 -11 -19 -25
-4 -17 -13 -25 -29 -25 -16 0 -18 -3 -9 -9 11 -7 10 -10 -3 -15 -9 -3 -21 -3
-27 0 -6 4 -5 -2 1 -15 10 -18 9 -20 -6 -14 -15 6 -16 5 -3 -9 8 -8 21 -13 29
-10 10 4 12 1 6 -9 -7 -11 -5 -11 10 1 11 9 16 10 11 3 -4 -7 -4 -13 1 -14 47
-4 63 -3 63 6 0 5 5 3 10 -5 9 -13 11 -13 20 0 9 13 10 13 10 0 0 -13 1 -13
10 0 5 8 10 11 10 6 0 -4 12 0 28 9 l27 18 -20 -24 -20 -24 20 15 c11 8 26 22
33 30 9 10 11 11 6 1 -4 -9 -2 -12 7 -9 8 3 13 10 12 15 -1 6 9 9 23 7 14 -1
22 2 18 8 -3 5 3 12 15 15 12 3 18 10 14 17 -4 6 0 5 9 -2 13 -10 18 -10 24
-1 4 8 3 9 -4 5 -7 -4 -12 -2 -12 3 0 6 5 12 10 12 6 1 16 2 23 3 6 0 13 7 13
14 1 6 2 17 3 23 0 5 6 7 11 4 6 -3 10 1 10 9 0 9 3 15 8 14 4 0 15 2 25 7 10
4 24 2 34 -6 12 -10 15 -10 9 -1 -4 7 -1 12 8 12 9 0 16 -5 16 -11 0 -5 4 -8
8 -5 10 6 43 -30 35 -38 -4 -3 -1 -6 6 -6 7 0 9 -5 6 -10 -4 -6 -10 -8 -14 -6
-4 3 -8 -1 -8 -9 0 -8 4 -12 9 -9 4 3 8 1 8 -5 0 -5 -5 -13 -10 -16 -6 -4 -7
-12 -3 -18 11 -18 12 -37 3 -37 -5 0 -7 -10 -5 -21 3 -12 1 -19 -2 -15 -4 4
-13 -4 -20 -16 -7 -13 -12 -17 -13 -10 0 6 -5 12 -11 12 -5 0 -8 -4 -4 -9 3
-5 -2 -16 -10 -24 -17 -18 -20 -31 -4 -21 8 4 9 -1 4 -17 -4 -17 -3 -20 3 -10
7 9 12 10 16 2 5 -8 13 -8 26 -1 17 9 19 8 13 -7 -6 -16 -5 -16 10 -4 9 7 24
11 32 7 8 -3 15 0 15 6 0 7 5 6 15 -2 12 -10 16 -9 21 4 3 9 10 14 14 11 4 -3
11 2 14 11 4 10 14 14 26 11 11 -3 18 -1 14 4 -3 5 0 9 7 9 7 0 9 3 6 6 -7 7
60 64 75 64 6 0 8 7 5 14 -4 10 -1 13 9 9 9 -3 14 0 12 8 -2 8 3 13 10 11 8
-1 11 2 7 8 -3 5 -1 10 5 10 6 0 8 5 5 10 -3 6 -1 10 5 10 6 0 8 5 5 10 -3 6
-2 10 3 10 5 0 12 9 15 21 5 17 3 18 -11 7 -9 -7 -3 2 13 19 26 27 31 29 37
15 6 -15 7 -14 8 3 1 11 4 14 7 8 2 -7 9 -13 14 -13 6 0 7 5 4 10 -8 13 18 8
27 -5 4 -5 15 -10 25 -10 10 0 17 -6 16 -13 -2 -6 2 -12 8 -12 8 0 7 -5 -1
-16 -11 -12 -11 -15 1 -12 8 2 13 -3 12 -10 -2 -6 2 -12 8 -12 6 0 7 -5 2 -12
-12 -21 -12 -40 0 -35 7 3 12 -5 12 -19 0 -13 -4 -24 -9 -24 -4 0 -6 -10 -3
-21 3 -12 0 -31 -8 -43 -10 -15 -11 -25 -4 -36 9 -12 10 -12 5 3 -3 11 -2 16
4 12 6 -3 10 -14 10 -23 0 -15 2 -15 10 -2 6 10 10 11 10 3 0 -20 20 -15 21 5
0 11 2 12 6 4 4 -10 8 -10 21 0 13 11 14 11 7 -2 -8 -13 -6 -13 8 -1 9 7 23
11 31 8 10 -4 13 -1 10 7 -3 7 2 16 11 20 9 3 14 9 12 13 -2 5 12 21 32 38
l36 29 -29 -32 c-17 -18 -26 -32 -22 -32 4 0 18 12 31 28 18 21 21 30 12 41
-10 12 -9 13 8 7 11 -4 16 -4 12 0 -4 4 -2 13 4 21 6 7 8 13 3 13 -4 0 1 7 12
16 10 8 13 13 7 9 -9 -4 -11 -1 -7 9 3 9 9 14 13 11 4 -2 8 2 8 10 0 8 -5 11
-11 8 -6 -4 -3 2 6 13 14 16 15 23 5 34 -10 10 -9 11 1 5 8 -4 13 -2 11 6 -5
38 2 61 21 66 11 3 17 10 13 17 -4 6 0 5 9 -2 13 -10 17 -10 21 0 4 10 8 10
16 -2 10 -13 11 -13 11 0 0 13 1 13 10 0 5 -8 10 -11 10 -6 0 6 7 1 16 -10 8
-10 12 -13 8 -5 -5 10 -3 12 7 6 30 -18 59 -51 59 -68 0 -11 5 -15 11 -11 7 4
9 0 5 -12 -3 -11 0 -31 8 -46 10 -19 11 -29 3 -37 -8 -8 -7 -11 3 -11 9 0 6
-6 -8 -16 -18 -12 -20 -19 -12 -29 7 -8 10 -18 7 -22 -3 -4 10 -8 28 -8 18 0
33 2 33 5 -1 18 4 21 16 11 11 -9 16 -9 22 0 5 8 3 9 -6 4 -8 -5 -11 -3 -9 4
3 7 7 11 11 9 11 -6 49 36 44 48 -3 9 1 11 12 7 9 -3 14 -3 10 2 -4 4 0 14 10
22 11 10 12 12 2 8 -10 -4 -10 -2 2 8 14 11 15 16 5 27 -9 10 -9 11 1 6 7 -5
12 -1 12 9 0 10 5 13 11 9 9 -5 10 1 5 21 -6 22 -4 26 9 21 12 -4 14 -2 7 12
-12 24 -9 41 8 52 8 5 10 10 4 10 -14 0 -15 51 -1 68 7 9 5 11 -9 5 -16 -6
-17 -4 -7 8 10 12 10 18 0 30 -6 7 -8 10 -3 6 5 -4 17 6 27 21 12 21 25 29 47
30 34 1 68 -29 56 -50 -5 -9 -2 -8 11 2 11 9 16 10 11 3 -4 -7 -2 -13 3 -13 6
0 11 -9 11 -20 0 -11 5 -20 10 -20 6 0 10 -6 10 -14 0 -8 6 -16 13 -19 9 -3
13 -24 12 -66 -1 -33 2 -56 6 -50 4 8 8 7 12 -2 5 -11 9 -10 20 3 8 10 18 14
22 10 5 -4 5 1 2 10 -4 12 -2 15 8 12 15 -6 38 29 27 42 -4 5 2 2 12 -6 11 -8
17 -10 13 -3 -6 10 5 38 45 116 6 13 5 24 -4 35 -10 12 -10 14 0 8 12 -7 17
10 13 43 -2 7 2 10 9 6 7 -4 4 5 -5 19 -10 15 -14 26 -9 25 23 -4 26 2 8 17
-10 8 -14 13 -7 10 7 -4 11 1 10 13 0 11 -5 17 -10 14 -5 -3 -6 4 -2 16 3 11
2 21 -3 21 -6 0 -13 7 -16 16 -5 14 -4 15 9 4 13 -11 14 -10 9 4 -3 9 -1 16 6
16 6 0 8 5 5 10 -3 6 1 10 10 10 8 0 20 10 25 23 5 12 9 18 9 13 1 -6 8 -1 16
10 11 14 14 15 15 4 0 -13 1 -13 11 0 9 12 10 10 6 -8 -3 -13 -3 -21 0 -18 4
3 13 0 21 -7 13 -10 15 -9 8 3 -4 9 -2 8 7 -2 8 -10 18 -14 23 -10 4 4 3 0 -4
-9 -14 -19 -4 -33 13 -19 8 7 11 3 10 -13 -1 -13 7 -27 19 -35 18 -11 18 -12
2 -7 -16 4 -17 3 -7 -9 7 -8 10 -20 6 -25 -4 -7 1 -9 12 -5 14 5 13 2 -4 -14
-19 -17 -20 -21 -7 -26 10 -4 13 -2 8 6 -5 7 -3 8 6 3 10 -6 9 -11 -4 -21 -18
-13 -11 -22 23 -29 14 -3 18 1 14 11 -3 9 0 14 8 12 7 -2 13 2 14 9 0 6 13 23
28 37 15 14 22 26 16 26 -7 0 -4 7 7 15 19 15 19 15 -1 9 -19 -7 -20 -6 -1 8
13 10 16 20 11 29 -7 11 -5 11 10 -1 17 -14 18 -14 7 7 -10 18 -9 24 5 32 10
6 13 11 7 11 -6 0 -11 7 -11 15 0 8 4 12 9 9 13 -8 10 10 -4 25 -7 8 -8 11 -2
8 6 -4 10 8 10 34 0 21 -5 39 -11 39 -5 0 -3 5 5 10 12 8 12 10 1 10 -11 0
-11 3 -1 15 10 12 10 15 0 15 -10 0 -10 3 0 15 10 12 10 15 0 15 -8 0 -10 3
-7 6 3 4 2 15 -4 25 -7 14 -6 19 3 20 7 0 4 4 -7 9 -11 5 -14 9 -7 9 7 1 10 6
7 11 -3 6 -1 10 4 10 6 0 10 6 8 13 -1 7 6 11 18 9 17 -2 18 -1 5 8 -11 9 -12
13 -2 17 6 2 10 8 8 12 -3 4 6 8 20 9 13 1 24 -3 24 -9 0 -7 6 -7 17 2 11 10
14 10 9 1 -4 -7 -1 -12 9 -12 8 0 18 -7 21 -15 4 -8 10 -13 15 -10 4 3 6 -4 4
-16 -4 -18 -2 -19 12 -7 15 12 15 11 3 -12 -12 -23 -12 -24 4 -11 14 12 16 12
10 -3 -3 -9 -1 -16 5 -16 6 0 11 -5 11 -11 0 -5 -6 -7 -12 -3 -7 4 -3 -4 10
-18 12 -13 22 -32 22 -42 0 -23 22 -16 36 12 6 12 14 19 17 15 4 -3 7 -1 7 4
0 6 -6 14 -12 16 -8 3 -5 6 5 6 10 1 16 5 13 10 -4 5 0 12 6 14 9 4 9 6 -1 6
-11 1 -10 5 5 16 10 8 15 15 9 14 -24 -3 -27 2 -9 17 10 8 13 12 5 8 -10 -5
-12 -3 -5 7 4 8 7 26 5 41 -1 18 2 28 11 29 7 0 4 4 -7 9 -11 5 -15 9 -8 9 8
1 9 10 5 29 -4 15 -7 41 -7 57 0 17 -7 36 -15 43 -8 8 -9 11 -3 7 9 -4 11 -1
7 9 -3 9 -10 14 -14 11 -4 -3 -11 2 -14 11 -3 8 -2 12 3 9 5 -3 12 -1 16 5 3
5 -3 10 -13 10 -11 0 -26 8 -33 18 -13 15 -12 16 4 3 22 -17 22 -8 0 15 -15
14 -15 18 -2 28 19 14 34 50 17 40 -7 -4 -8 -3 -4 4 4 7 14 12 22 12 10 0 12
5 8 13 -5 7 0 6 11 -3 11 -9 16 -10 11 -2 -8 13 -9 13 57 15 36 2 47 -2 47
-13 0 -12 2 -12 8 -2 7 10 14 10 35 -1 15 -8 23 -18 19 -23 -4 -4 1 -3 10 4
14 11 16 10 14 -11 -3 -20 1 -23 23 -20 21 4 23 2 11 -6 -11 -8 -12 -11 -2
-11 7 0 10 -4 7 -10 -3 -5 1 -10 9 -10 8 0 19 -7 24 -17 9 -14 11 -14 22 7 10
18 10 21 -2 15 -7 -3 -5 0 5 8 14 11 15 16 5 20 -10 4 -10 6 1 6 11 1 11 4 0
18 -10 11 -10 14 -1 9 9 -5 11 -1 8 16 -3 13 -5 23 -6 23 -1 0 -3 10 -4 22 -1
12 1 20 6 17 4 -3 8 0 8 5 0 6 -5 11 -11 11 -8 0 -8 4 0 13 8 10 6 19 -8 34
-15 16 -17 23 -8 33 9 10 9 11 0 6 -7 -4 -13 -2 -13 4 0 6 -5 8 -12 4 -8 -5
-7 0 2 11 8 10 10 16 4 12 -13 -8 -27 19 -18 34 3 5 0 8 -6 7 -7 -2 -17 6 -23
17 -7 11 -19 26 -27 33 -13 12 -13 13 0 6 13 -7 13 -6 1 9 -11 14 -16 15 -29
5 -13 -10 -14 -10 -8 -1 4 8 2 13 -4 13 -7 0 -10 6 -7 14 3 8 -1 20 -9 26 -17
15 -19 34 -1 24 8 -5 8 -2 -2 9 -10 13 -10 17 -1 17 9 0 9 4 2 13 -8 9 0 12
34 13 29 0 44 -4 44 -12 0 -7 8 -10 20 -7 15 4 20 0 20 -13 0 -16 2 -17 10 -4
7 12 10 12 10 1 0 -8 6 -11 16 -7 8 3 12 2 9 -4 -6 -9 9 -15 29 -11 5 1 3 -5
-4 -14 -7 -9 -9 -15 -4 -14 21 4 34 -2 34 -16 0 -8 7 -15 16 -15 8 0 13 -4 10
-9 -3 -5 1 -11 9 -14 10 -4 12 -1 8 10 -4 9 -2 14 3 10 6 -3 15 3 22 13 8 13
8 21 1 25 -6 5 -4 16 6 32 10 14 12 22 5 18 -9 -5 -10 -1 -5 15 6 17 4 21 -6
14 -12 -6 -12 -5 -1 8 9 11 10 18 2 23 -7 4 -7 13 1 27 8 15 8 19 0 14 -7 -4
-11 1 -11 13 0 12 -4 21 -9 21 -5 0 -12 7 -15 16 -6 15 -4 15 11 3 11 -9 9 -1
-7 21 -13 19 -28 37 -33 38 -4 2 -3 10 4 18 10 12 8 13 -7 8 -10 -4 -16 -4
-12 0 4 5 -4 19 -18 33 -13 13 -24 28 -24 33 0 6 -8 10 -17 10 -16 0 -16 -2
-3 -11 13 -9 13 -10 0 -6 -8 2 -14 10 -13 18 1 8 -10 23 -25 34 -27 19 -27 19
-12 0 14 -19 14 -19 -6 -2 -11 9 -23 15 -26 12 -3 -3 -6 6 -5 19 0 16 4 23 11
19 6 -4 5 0 -2 9 -15 18 0 34 20 22 8 -5 9 -2 4 11 -6 18 -6 18 12 2 21 -19
32 -22 32 -6 0 5 -5 7 -12 3 -7 -4 -8 -3 -4 4 4 6 13 9 21 6 8 -4 12 -11 8
-18 -5 -7 -2 -7 8 1 9 8 20 9 29 3 21 -14 32 -12 25 3 -4 6 0 4 8 -5 8 -10 22
-18 31 -18 11 0 14 -5 10 -12 -5 -8 -2 -9 9 -5 10 4 16 2 14 -5 -1 -7 5 -13
13 -13 8 0 14 -7 12 -13 -2 -10 3 -10 17 -3 10 6 22 7 27 3 5 -4 2 2 -6 12
-14 18 -13 18 10 12 19 -6 21 -5 10 3 -8 6 -11 11 -6 11 5 0 2 8 -5 17 -12 15
-12 16 5 9 19 -6 19 -6 3 12 -19 20 -23 37 -7 27 6 -3 7 1 4 9 -3 9 -11 16
-16 16 -6 0 -4 8 3 17 10 11 10 14 2 9 -8 -4 -13 -2 -13 7 0 8 -7 18 -16 21
-10 4 -13 13 -9 26 4 14 2 20 -7 18 -7 -2 -12 3 -11 10 2 6 -3 12 -10 12 -6 0
-18 14 -26 31 -7 16 -16 28 -19 25 -2 -3 1 -14 9 -23 13 -17 13 -17 -5 -3 -10
8 -22 24 -27 37 -6 16 -13 21 -25 16 -12 -4 -15 -3 -10 5 6 11 -12 17 -36 13
-12 -2 -9 14 4 27 9 9 6 11 -10 7 -12 -2 -27 -7 -34 -11 -7 -5 -8 -3 -3 6 6
10 3 12 -13 8 -12 -4 -20 -2 -16 3 3 5 1 9 -4 9 -5 0 -8 15 -7 33 4 43 4 44
14 28 7 -11 10 -9 16 8 3 11 13 21 21 21 8 0 14 6 14 13 0 9 3 8 9 -2 6 -9 11
-10 15 -2 4 6 12 11 17 11 6 0 7 -5 3 -12 -5 -7 -3 -8 7 -2 19 12 51 16 45 6
-3 -5 1 -9 9 -9 8 0 12 4 9 9 -3 4 4 8 15 8 12 0 21 -6 21 -12 0 -10 3 -9 9 1
5 7 10 9 12 3 4 -9 36 -16 68 -13 11 1 11 4 1 16 -11 13 -10 14 4 9 18 -7 22
6 5 23 -7 7 -5 16 8 29 17 16 17 17 1 11 -13 -5 -18 -1 -18 11 0 10 -6 24 -12
31 -10 11 -10 12 -1 7 9 -5 11 -2 7 9 -4 9 -13 14 -22 10 -12 -4 -13 -3 -2 10
10 12 10 15 -4 15 -10 0 -14 5 -11 10 3 6 -1 10 -9 10 -15 0 -21 12 -17 34 1
5 -5 3 -14 -4 -9 -7 -15 -9 -14 -4 5 27 -1 33 -51 48 -3 1 -10 5 -17 9 -6 4
-18 4 -27 1 -9 -4 -16 -1 -16 6 0 9 -12 11 -40 7 -32 -4 -40 -2 -40 10 0 13
-3 13 -15 3 -12 -10 -15 -10 -15 1 0 11 -2 11 -10 -1 -8 -12 -12 -13 -19 -2
-4 8 -12 13 -17 12 -5 -1 -10 4 -13 11 -2 7 1 9 8 5 16 -10 14 0 -5 18 -14 15
-14 16 3 16 10 0 14 4 8 8 -13 9 -18 32 -7 32 5 0 17 7 28 16 10 8 12 12 4 8
-8 -4 -4 4 9 17 30 28 52 34 45 11 -3 -10 2 -6 10 8 8 14 15 21 16 17 0 -4 9
-3 20 3 15 8 20 8 20 -1 0 -8 5 -7 17 2 15 12 16 12 8 -1 -7 -13 -6 -13 7 -2
13 10 17 10 21 -1 3 -7 18 -12 33 -11 44 2 46 3 38 15 -4 8 -9 7 -16 -2 -5 -9
-6 -4 -2 15 5 19 2 31 -7 37 -8 4 -14 12 -15 16 -3 33 -37 76 -50 65 -5 -4 -3
1 4 10 12 14 10 16 -9 11 -17 -5 -21 -3 -16 9 4 12 1 14 -13 11 -21 -6 -53 20
-42 33 4 5 -1 2 -10 -5 -14 -10 -18 -11 -18 -1 0 7 -8 10 -20 7 -10 -3 -24 1
-30 8 -12 14 -27 14 -47 2 -8 -5 -13 -3 -13 4 0 8 -5 7 -17 -2 -13 -11 -15
-11 -9 -1 10 16 -25 13 -36 -3 -5 -6 -8 -5 -8 3 0 6 -7 12 -16 12 -9 0 -12 5
-8 12 5 7 2 9 -8 5 -12 -4 -14 -1 -11 14 3 10 0 19 -6 19 -6 0 -11 9 -11 21 0
11 -4 17 -10 14 -15 -9 -12 8 6 34 16 23 16 23 -7 11 -23 -12 -22 -11 4 17 15
16 24 33 20 38 -5 4 3 2 17 -5 23 -12 24 -12 11 4 -12 15 -12 17 0 14 8 -2 13
3 11 11 -2 8 3 11 13 8 8 -4 15 -2 15 3 0 6 3 9 8 8 16 -3 41 15 35 26 -4 7
-2 7 8 -1 12 -10 18 -10 28 0 9 9 14 9 21 -3 9 -14 15 -7 11 14 -1 5 4 4 12
-2 21 -17 15 21 -6 42 -9 10 -17 22 -17 27 0 6 -4 8 -9 5 -5 -3 -20 3 -34 14
-19 15 -27 17 -30 8 -3 -8 -6 -5 -6 6 -1 12 -6 16 -16 13 -8 -4 -17 -2 -20 3
-9 15 -27 12 -20 -2 4 -7 -1 -4 -9 6 -10 13 -16 15 -16 7 0 -11 -3 -11 -17 0
-9 8 -14 9 -10 3 3 -6 0 -11 -8 -11 -8 0 -12 4 -9 9 6 10 -39 3 -57 -8 -8 -5
-9 -3 -5 5 10 15 -25 11 -36 -4 -5 -6 -8 -5 -8 3 0 10 -5 10 -20 2 -15 -8 -20
-8 -20 2 0 10 -2 10 -9 -1 -7 -10 -12 -11 -22 -2 -8 6 -25 19 -38 29 -20 16
-22 21 -12 40 9 17 9 22 -1 22 -6 0 -3 6 8 14 10 8 16 18 11 22 -4 4 -7 2 -7
-4 0 -7 -6 -12 -12 -12 -7 0 -1 11 14 24 15 13 24 27 21 30 -4 3 5 6 18 6 19
0 21 2 9 10 -13 8 -12 10 3 10 11 0 15 4 11 12 -5 8 -2 9 10 5 10 -4 19 -1 23
8 4 12 9 13 19 4 8 -6 14 -8 14 -4 0 4 6 2 13 -4 10 -8 14 -7 14 4 0 8 -5 11
-10 8 -6 -4 -7 -1 -3 6 5 7 14 10 20 8 7 -3 13 1 13 9 0 7 -4 11 -9 8 -4 -3
-8 2 -8 11 0 9 -5 13 -11 9 -8 -4 -9 1 -4 17 3 13 3 20 -2 14 -11 -14 -33 -17
-33 -5 0 5 -7 10 -15 10 -8 0 -15 5 -15 11 0 8 -5 8 -15 -1 -12 -10 -16 -9
-21 4 -5 12 -10 14 -19 6 -10 -8 -15 -8 -21 1 -5 8 -3 9 6 4 9 -5 11 -4 6 4
-5 8 -12 9 -20 2 -15 -13 -68 -10 -78 4 -5 6 -8 3 -8 -7 0 -21 -16 -32 -26
-17 -5 8 -3 9 6 4 9 -6 11 -4 6 4 -6 9 -13 8 -29 -6 -14 -13 -18 -14 -13 -3 4
8 1 7 -7 -3 -15 -18 -16 -18 -27 0 -8 13 -10 14 -7 2 4 -12 -4 -19 -28 -26
-29 -9 -33 -8 -28 5 4 10 2 13 -5 8 -7 -4 -20 -2 -29 4 -14 9 -14 10 -2 7 9
-3 16 1 16 8 0 7 -7 10 -16 8 -9 -2 -22 6 -29 18 -11 17 -11 20 0 13 10 -6 10
-4 -1 9 -9 12 -10 17 -2 17 7 0 11 6 9 13 -2 6 1 13 6 14 5 0 18 15 28 32 11
17 27 31 35 31 10 0 13 6 9 16 -5 14 -4 15 9 4 12 -10 16 -9 21 3 3 9 12 13
19 11 7 -3 16 -1 19 5 4 6 14 7 24 4 14 -5 13 -2 -3 13 -12 10 -16 15 -9 11 7
-5 15 -3 20 4 4 8 3 9 -4 5 -7 -4 -12 -2 -12 3 0 6 -9 11 -20 11 -11 0 -20 5
-20 10 0 6 -12 10 -26 10 -14 0 -23 4 -20 8 3 5 -1 9 -9 9 -8 0 -11 -5 -8 -11
4 -6 -1 -5 -11 3 -15 13 -19 13 -27 0 -5 -8 -9 -9 -9 -3 0 7 -7 15 -16 18 -8
3 -12 2 -9 -4 3 -6 -1 -10 -10 -10 -10 0 -13 5 -9 13 4 6 -2 3 -14 -7 -23 -20
-30 -10 -9 14 6 8 2 6 -11 -5 -27 -22 -49 -27 -58 -13 -3 5 -13 0 -21 -12 -11
-16 -18 -18 -28 -10 -10 8 -14 7 -18 -2 -4 -10 -6 -10 -6 1 -1 11 -6 10 -23
-5 -12 -10 -18 -13 -14 -7 5 9 2 11 -8 7 -9 -3 -13 -11 -9 -18 4 -6 -2 -4 -12
4 -17 14 -18 13 -12 -3 6 -15 4 -16 -14 -7 -11 6 -17 15 -14 20 3 4 -3 6 -14
3 -13 -3 -20 2 -24 18 -5 20 -8 21 -23 8 -12 -9 -15 -10 -10 -1 4 8 1 12 -10
12 -13 0 -14 3 -5 14 10 11 8 17 -6 25 -13 7 -14 10 -4 11 8 0 11 3 8 7 -4 3
-1 13 6 21 10 13 9 14 -2 7 -11 -6 -13 -4 -8 9 4 10 7 20 7 22 0 3 5 2 11 -2
7 -4 7 1 -1 16 -8 15 -8 20 -1 16 6 -4 14 1 18 11 8 25 60 72 70 64 4 -3 1 3
-7 13 -8 11 -10 17 -3 13 6 -4 15 -3 18 3 4 6 3 10 -2 9 -21 -4 -33 2 -33 17
0 8 -4 12 -10 9 -5 -3 -10 -1 -10 6 0 7 -6 5 -13 -6 -11 -14 -16 -15 -22 -5
-6 9 -4 11 5 5 9 -6 11 -4 5 4 -5 9 -10 10 -18 2 -7 -7 -14 -7 -24 0 -9 8 -14
7 -19 -4 -3 -9 -12 -13 -21 -10 -12 5 -14 3 -8 -8 7 -11 6 -12 -6 -2 -10 8
-19 9 -25 3 -6 -6 -22 -11 -36 -12 -22 -2 -25 -5 -15 -17 10 -12 9 -13 -1 -7
-7 4 -19 2 -27 -4 -12 -10 -15 -10 -15 1 0 11 -2 11 -9 -1 -6 -8 -8 -17 -5
-21 2 -5 -4 -6 -15 -4 -14 2 -18 -1 -14 -11 3 -9 -1 -14 -12 -14 -9 0 -13 -4
-10 -10 3 -5 -4 -10 -15 -10 -15 0 -20 -5 -17 -14 7 -18 -27 -13 -51 6 -13 11
-14 11 -7 -2 6 -11 3 -10 -12 3 -11 9 -23 14 -26 10 -4 -3 -7 -1 -7 6 0 7 -4
10 -9 6 -5 -3 -11 7 -13 22 -3 31 12 83 24 83 4 0 8 7 8 15 0 8 8 15 18 15 14
0 15 2 2 10 -14 9 -7 14 13 11 4 -1 15 12 25 29 11 16 21 28 24 25 2 -3 5 2 5
10 0 8 -4 12 -9 9 -4 -3 -8 3 -9 13 0 16 -1 16 -9 -2 -7 -16 -9 -17 -9 -3 -1
12 -7 15 -23 10 -16 -4 -19 -2 -13 9 7 11 6 12 -7 2 -8 -7 -18 -10 -21 -6 -4
3 -7 1 -7 -6 0 -7 -5 -9 -12 -5 -18 11 -48 12 -48 2 0 -5 -5 -6 -10 -3 -6 4
-18 1 -27 -7 -14 -11 -16 -11 -9 2 4 9 2 8 -7 -2 -8 -10 -17 -15 -20 -12 -9 9
-57 -27 -51 -38 4 -6 -4 -5 -16 2 -12 6 -24 9 -28 6 -3 -3 0 -6 7 -6 9 0 9 -4
-1 -14 -7 -8 -17 -11 -22 -8 -5 3 -6 -3 -3 -12 5 -14 3 -17 -8 -12 -9 3 -15 0
-15 -10 0 -9 -5 -12 -12 -8 -7 5 -8 3 -4 -5 5 -7 0 -21 -10 -32 -14 -15 -20
-17 -32 -6 -13 9 -14 9 -8 0 4 -8 1 -13 -9 -13 -10 0 -13 5 -9 12 4 7 3 8 -4
4 -19 -12 -53 -16 -47 -5 4 5 -2 9 -12 10 -11 0 -13 3 -5 6 8 3 5 11 -10 24
-17 14 -18 17 -5 13 15 -5 16 -3 8 17 -5 13 -10 27 -12 31 -2 4 5 14 16 23 11
8 13 13 5 10 -11 -4 -15 2 -14 23 1 34 12 55 25 47 5 -3 6 1 3 10 -5 11 0 18
14 22 19 4 19 6 4 22 -10 9 -26 15 -36 13 -11 -3 -17 -1 -13 5 4 6 -4 9 -20 7
-14 -1 -30 -9 -34 -16 -7 -10 -9 -10 -9 2 0 12 -2 13 -9 1 -5 -7 -14 -10 -20
-7 -7 4 -10 2 -9 -5 2 -7 -6 -13 -17 -14 -11 0 -19 -5 -18 -12 2 -8 -4 -10
-14 -6 -11 4 -14 3 -9 -5 4 -7 1 -12 -8 -12 -8 0 -18 -5 -22 -12 -5 -7 -3 -8
7 -3 8 5 5 -1 -5 -13 -21 -24 -32 -29 -20 -10 4 7 3 8 -5 4 -9 -6 -9 -11 1
-24 10 -12 10 -14 1 -8 -21 12 -34 -3 -22 -25 9 -18 9 -19 -9 -10 -17 9 -19 8
-15 -9 3 -11 -4 -28 -16 -41 -12 -13 -21 -26 -21 -31 0 -4 -5 -8 -11 -8 -5 0
-7 6 -4 13 4 6 -1 3 -9 -7 -11 -14 -16 -15 -16 -6 0 11 -3 11 -12 2 -9 -9 -16
-8 -32 6 -11 9 -16 12 -13 5 4 -6 3 -14 -2 -17 -5 -4 -12 3 -16 14 -3 11 -11
20 -16 20 -5 0 -9 7 -9 16 0 9 -5 12 -12 8 -7 -4 -5 2 5 13 14 16 15 22 5 26
-11 4 -11 6 0 6 7 1 10 6 7 11 -3 6 0 10 7 10 10 0 9 3 -1 9 -12 8 -12 12 -2
25 8 9 10 16 5 16 -5 0 0 7 10 15 14 11 16 15 5 15 -10 1 -9 3 4 11 9 5 17 15
17 20 0 6 -4 7 -10 4 -5 -3 -10 -1 -10 4 0 6 8 11 17 11 20 0 11 10 -14 15
-10 2 -18 4 -18 5 0 9 -48 3 -56 -7z m21 -3 c0 -5 -5 -10 -11 -10 -5 0 -7 5
-4 10 3 6 8 10 11 10 2 0 4 -4 4 -10z m-356 -111 c-9 -15 -20 -10 -20 10 0 15
3 17 13 9 7 -6 10 -14 7 -19z m556 -123 c0 -2 -7 -9 -15 -16 -13 -11 -14 -10
-9 4 5 14 24 23 24 12z m-52 -230 c7 -4 12 -2 12 6 0 10 2 10 9 0 12 -19 15
-19 36 -2 17 14 18 13 11 -5 -6 -16 -5 -17 5 -8 9 9 16 10 26 1 11 -9 12 -7 6
8 -6 17 -5 17 10 5 14 -11 17 -11 17 0 0 12 2 12 9 1 9 -15 20 -15 38 -1 7 7
14 6 19 -2 5 -8 3 -9 -6 -4 -9 5 -11 4 -6 -3 5 -8 13 -9 24 -3 11 6 26 5 42
-4 19 -10 28 -11 39 -2 11 9 15 9 18 -1 3 -6 10 -9 16 -5 19 12 46 10 51 -3 7
-17 -5 -26 -20 -13 -8 7 -14 6 -20 -2 -4 -8 -3 -9 4 -5 7 4 12 1 12 -8 0 -10
-6 -13 -16 -9 -10 4 -17 -1 -21 -16 -3 -11 -12 -21 -19 -21 -8 0 -14 -5 -14
-11 0 -5 -4 -7 -10 -4 -5 3 -10 3 -10 -2 0 -4 -17 -9 -37 -10 -20 -1 -40 -8
-44 -15 -7 -11 -9 -11 -9 0 0 8 -5 10 -12 5 -7 -4 -20 -8 -28 -10 -8 -1 -16
-7 -18 -13 -3 -7 -9 -7 -20 2 -12 10 -14 10 -8 1 4 -7 2 -14 -3 -14 -6 -1 -15
-3 -21 -4 -5 -1 -15 -3 -21 -4 -5 0 -7 -5 -4 -11 3 -6 -4 -10 -18 -10 -32 0
-68 -43 -42 -51 6 -2 18 -12 28 -23 10 -12 15 -14 11 -6 -7 13 -5 13 8 2 9 -7
30 -14 47 -15 17 -1 31 -5 31 -8 0 -3 10 -5 23 -4 12 1 31 -5 41 -14 16 -13
18 -13 11 -1 -7 12 -6 13 7 3 8 -7 18 -10 21 -6 4 3 7 -2 8 -13 0 -10 3 -14 5
-8 2 6 18 8 35 6 24 -4 31 0 35 15 5 18 13 20 76 17 41 -2 74 -8 79 -15 9 -15
32 -1 25 17 -4 9 3 13 24 11 17 -1 30 -6 30 -10 0 -5 4 -6 8 -3 5 3 24 -9 43
-26 41 -39 67 -44 63 -12 -1 12 -7 30 -13 41 -5 11 -7 23 -4 27 3 3 1 6 -5 6
-7 0 -12 5 -12 11 0 5 4 8 9 5 5 -4 12 12 16 34 4 22 11 40 16 40 5 0 9 8 9
18 0 10 5 23 12 30 8 8 4 10 -18 6 -16 -3 -32 -11 -36 -17 -4 -7 -8 -8 -8 -4
0 5 -13 -1 -29 -12 -16 -12 -39 -21 -50 -21 -12 0 -21 -4 -21 -10 0 -5 -7 -10
-15 -10 -8 0 -15 7 -15 16 0 9 -5 12 -12 8 -10 -6 -10 -5 0 8 10 12 10 17 -1
27 -8 6 -16 9 -18 6 -3 -2 -6 5 -6 17 -1 12 -7 24 -13 28 -7 4 -12 11 -12 16
0 5 -3 8 -7 7 -4 -1 -7 6 -6 15 0 9 5 18 10 19 6 0 9 -4 7 -10 -2 -8 0 -8 9 0
10 10 16 10 28 0 12 -9 13 -9 7 1 -4 6 -2 12 3 12 6 0 11 -4 11 -10 0 -6 3 -9
8 -9 24 4 42 -2 36 -12 -5 -8 -2 -9 12 -1 10 6 25 7 34 2 8 -4 29 -10 45 -13
46 -8 66 -18 58 -31 -4 -6 1 -5 10 3 11 9 17 10 17 2 0 -6 3 -10 8 -10 25 4
44 -3 39 -14 -4 -10 3 -12 25 -9 23 4 29 2 23 -8 -6 -9 -4 -11 4 -6 7 5 22 0
34 -11 19 -15 20 -16 8 0 -21 26 -5 20 25 -10 15 -16 21 -19 13 -9 -13 18 -13
18 7 8 12 -6 25 -8 29 -4 5 4 5 -1 2 -10 -3 -10 -1 -20 5 -24 7 -4 8 -3 4 4
-4 7 -2 12 3 12 6 0 11 -4 11 -9 0 -5 7 -12 16 -15 9 -4 13 -2 8 5 -4 8 0 7
15 0 11 -7 21 -14 21 -17 0 -3 -6 -2 -12 2 -9 5 -9 2 1 -9 15 -18 26 -23 16
-7 -9 15 21 12 34 -3 6 -8 7 -17 3 -22 -4 -4 3 -4 16 -1 14 5 22 3 22 -4 0 -6
4 -9 9 -6 5 4 11 3 13 -1 5 -13 66 -53 79 -53 6 0 18 -8 26 -17 10 -12 12 -13
8 -3 -6 13 -5 13 7 0 7 -8 25 -21 40 -29 15 -8 25 -18 22 -23 -5 -7 11 -12 19
-5 6 5 54 -48 50 -55 -2 -4 4 -5 13 -1 13 5 15 3 9 -7 -6 -9 -4 -12 6 -8 8 3
25 -6 39 -20 l25 -24 -30 17 c-25 14 -26 14 -10 1 11 -9 27 -22 35 -29 9 -8
22 -11 29 -9 8 3 11 0 7 -7 -9 -14 15 -39 31 -34 7 3 10 -6 9 -22 -3 -20 -1
-23 10 -14 14 11 20 1 15 -25 -1 -5 5 -4 13 4 9 7 17 10 17 6 1 -3 3 -10 4
-16 1 -5 3 -12 4 -15 0 -3 1 -8 0 -12 -1 -10 30 -25 40 -18 5 3 8 -3 7 -12 -3
-19 16 -43 34 -43 6 0 9 -4 5 -9 -3 -5 4 -16 16 -25 13 -9 19 -21 16 -30 -4
-10 -1 -13 9 -9 7 3 14 0 14 -6 0 -6 3 -10 8 -10 18 3 22 -2 13 -20 -8 -14 -7
-22 7 -32 15 -13 16 -12 3 4 -7 9 -9 17 -3 17 15 0 22 -26 9 -39 -8 -8 -4 -9
12 -6 18 3 21 1 16 -16 -4 -11 -3 -18 2 -17 4 2 9 0 10 -5 5 -14 28 -35 35
-30 4 2 5 -3 2 -11 -4 -10 1 -18 11 -22 13 -5 14 -9 3 -15 -10 -7 -11 -9 0 -9
7 0 11 -4 7 -9 -3 -5 4 -16 16 -24 15 -11 17 -16 7 -20 -8 -4 -5 -8 10 -12 12
-4 22 -12 22 -17 0 -5 -6 -6 -12 -2 -10 6 -10 5 -1 -8 7 -8 9 -19 5 -23 -4 -5
-2 -6 3 -3 6 3 16 0 23 -8 7 -8 8 -14 2 -14 -5 0 -10 -5 -10 -11 0 -5 5 -7 10
-4 9 6 14 -8 11 -27 0 -5 3 -8 9 -8 5 0 10 -9 10 -20 0 -11 6 -20 13 -20 8 0
7 -4 -3 -10 -14 -9 -7 -14 13 -11 5 1 6 -8 2 -19 -5 -15 -2 -20 11 -20 17 0
17 -1 -1 -13 -14 -11 -15 -16 -5 -22 9 -6 11 -4 5 5 -5 8 -4 11 2 7 6 -4 9
-18 7 -32 -2 -23 0 -24 14 -13 13 10 14 11 8 0 -4 -7 -2 -20 5 -28 10 -12 9
-13 -7 -8 -18 5 -18 5 -2 -9 13 -10 14 -17 6 -25 -9 -9 -5 -14 13 -21 20 -8
21 -10 5 -10 -20 -1 -20 -1 0 -16 16 -13 17 -16 4 -25 -13 -8 -12 -10 5 -10
17 0 17 -2 5 -10 -12 -8 -12 -10 5 -11 11 0 14 -3 7 -6 -10 -4 -10 -8 0 -21 8
-10 9 -13 1 -9 -6 4 -15 3 -18 -3 -4 -6 -1 -9 6 -8 14 3 30 -57 21 -80 -3 -9
-1 -13 4 -9 10 6 13 -12 15 -90 1 -21 5 -30 13 -26 6 3 6 0 -1 -8 -15 -16 -17
-33 -3 -24 13 8 13 -1 0 -26 -8 -14 -7 -19 1 -19 7 0 9 -3 6 -7 -4 -3 -1 -13
6 -21 10 -13 9 -14 -2 -7 -11 6 -13 2 -7 -19 4 -17 3 -25 -3 -22 -10 7 -9 -13
2 -31 4 -6 3 -14 -3 -18 -5 -3 -10 -12 -10 -18 0 -7 4 -6 10 3 12 19 8 -49 -4
-69 -6 -10 -5 -12 2 -7 15 9 15 1 2 -24 -7 -13 -7 -21 0 -25 7 -4 7 -12 0 -25
-7 -13 -6 -20 3 -23 9 -3 9 -7 -2 -20 -7 -10 -10 -17 -7 -17 4 0 1 -10 -5 -23
-12 -21 -11 -21 6 -7 17 13 16 10 -3 -23 -12 -21 -18 -36 -13 -33 5 3 12 -1
15 -10 3 -8 2 -12 -3 -9 -5 3 -12 1 -16 -5 -3 -5 0 -10 7 -10 8 0 6 -5 -5 -11
-14 -8 -15 -14 -7 -24 8 -9 7 -14 -4 -18 -8 -3 -14 -15 -13 -26 0 -11 4 -18 7
-16 3 2 6 -5 6 -15 0 -12 -5 -16 -16 -12 -13 5 -13 3 -1 -11 9 -12 10 -17 2
-17 -8 0 -9 -5 -1 -19 11 -21 -2 -37 -20 -26 -7 4 -7 -2 -1 -18 7 -18 6 -30
-5 -43 -9 -11 -12 -13 -8 -5 5 10 3 12 -5 7 -9 -6 -9 -11 0 -22 6 -8 7 -14 2
-14 -17 0 -32 -45 -21 -63 6 -12 6 -17 -3 -15 -6 2 -13 -7 -15 -20 -2 -13 -11
-30 -19 -38 -20 -20 -19 -25 3 -17 11 4 10 0 -5 -11 -13 -10 -23 -26 -23 -36
0 -10 -6 -25 -13 -32 -8 -7 -12 -19 -9 -26 2 -6 -3 -15 -12 -18 -9 -3 -16 -13
-16 -21 0 -8 -4 -11 -10 -8 -16 10 -12 -2 8 -21 16 -17 16 -18 0 -11 -12 4
-18 2 -18 -7 0 -8 -7 -17 -16 -20 -11 -4 -15 -14 -12 -31 4 -20 2 -23 -8 -15
-9 9 -12 5 -10 -14 2 -16 -1 -23 -9 -19 -7 2 -16 -1 -21 -8 -4 -7 -3 -10 3 -6
5 3 10 0 10 -8 0 -7 -8 -12 -19 -10 -15 3 -16 1 -7 -17 8 -15 8 -19 0 -14 -6
4 -11 2 -11 -4 0 -6 -4 -9 -9 -5 -5 3 -12 1 -16 -5 -3 -5 -1 -10 4 -10 6 0 11
-5 11 -11 0 -5 -4 -7 -10 -4 -5 3 -10 1 -10 -5 0 -6 -5 -8 -12 -4 -8 5 -9 2
-5 -9 3 -10 2 -17 -4 -17 -6 0 -8 -3 -6 -7 6 -10 -19 -34 -27 -26 -3 4 -6 -1
-6 -10 0 -10 -9 -25 -20 -34 -11 -10 -20 -23 -20 -29 0 -18 -32 -27 -42 -12
-5 9 -8 10 -8 1 0 -7 8 -17 18 -22 15 -9 15 -10 -5 -11 -23 0 -48 -32 -35 -44
3 -4 -1 -4 -10 -1 -9 4 -19 1 -24 -6 -4 -8 -3 -10 4 -5 7 4 12 3 12 -3 0 -5
-9 -13 -20 -16 -11 -3 -20 -11 -20 -16 0 -6 -5 -7 -12 -3 -7 5 -9 2 -5 -8 8
-22 -3 -30 -20 -16 -11 8 -12 7 -7 -5 7 -19 -27 -55 -46 -49 -7 3 -10 0 -6 -6
4 -7 -1 -9 -15 -7 -18 4 -19 2 -8 -11 7 -8 8 -14 3 -13 -17 4 -44 -13 -37 -24
4 -6 0 -8 -10 -4 -11 4 -17 1 -17 -9 0 -8 -4 -12 -10 -9 -9 6 -14 -8 -11 -28
1 -5 -3 -6 -9 -2 -6 3 -7 12 -4 18 4 7 4 9 -1 5 -4 -4 -13 -18 -19 -30 -7 -13
-17 -24 -24 -24 -7 -1 -19 -2 -28 -3 -8 0 -13 -5 -9 -10 3 -6 -5 -15 -17 -22
-19 -9 -21 -9 -10 2 6 7 12 18 12 23 0 6 -7 0 -16 -12 -8 -12 -20 -20 -25 -17
-5 3 -6 -2 -2 -11 5 -14 2 -16 -15 -12 -12 4 -20 2 -16 -3 3 -5 0 -9 -6 -9 -6
0 -8 -4 -5 -10 4 -6 -1 -7 -11 -3 -12 4 -15 3 -10 -5 9 -16 -7 -15 -22 0 -9 9
-11 6 -7 -10 3 -19 1 -21 -15 -12 -15 8 -18 7 -15 -2 3 -7 -4 -19 -16 -26 -17
-11 -20 -11 -14 0 3 7 -1 4 -9 -6 -16 -19 -16 -19 -17 5 -1 22 -2 21 -9 -6 -4
-16 -8 -24 -9 -17 0 6 -6 12 -12 12 -5 0 -7 -4 -4 -10 3 -5 -1 -10 -9 -10 -9
0 -16 -5 -16 -12 0 -6 -3 -8 -7 -5 -3 4 -11 3 -17 -2 -21 -16 -47 -21 -41 -8
4 6 -1 3 -9 -7 -9 -11 -16 -16 -16 -11 0 5 -7 0 -16 -11 -8 -10 -13 -13 -9 -6
9 18 -16 14 -32 -5 -8 -10 -12 -12 -8 -5 3 6 2 12 -3 12 -6 0 -12 -7 -16 -15
-3 -8 -11 -15 -18 -15 -9 0 -8 3 2 10 17 11 10 13 -14 4 -9 -3 -13 -11 -10
-16 4 -6 -3 -5 -15 1 -16 9 -20 9 -15 -2 3 -10 -2 -14 -18 -13 -13 1 -29 -4
-37 -12 -10 -10 -16 -10 -27 -1 -11 9 -15 8 -20 -5 -5 -12 -10 -13 -26 -5 -12
7 -18 7 -14 1 3 -5 -1 -13 -10 -16 -10 -4 -13 -2 -8 7 6 9 4 9 -8 -1 -8 -7
-24 -9 -33 -5 -13 4 -16 3 -11 -5 10 -16 -6 -15 -23 1 -11 10 -12 9 -6 -2 6
-11 4 -13 -10 -7 -15 5 -16 4 -6 -8 10 -12 8 -13 -16 -7 -15 4 -40 4 -55 0
-16 -4 -28 -5 -28 -2 0 3 -7 -1 -17 -8 -13 -11 -17 -11 -21 -1 -3 10 -7 10
-18 1 -11 -9 -14 -8 -14 2 0 11 -2 11 -9 0 -5 -8 -19 -15 -30 -16 -11 -1 -18
2 -15 6 2 4 0 10 -6 14 -5 3 -10 0 -10 -7 0 -19 -93 -18 -102 2 -5 12 -7 12
-7 -3 -1 -15 -5 -16 -21 -7 -15 8 -20 8 -21 -2 0 -10 -2 -10 -6 0 -2 6 -9 12
-14 12 -6 0 -7 -6 -3 -12 5 -9 2 -9 -9 1 -10 8 -17 9 -17 3 0 -14 -53 -8 -58
7 -3 8 -9 6 -19 -6 -8 -10 -12 -13 -9 -7 3 7 -3 14 -14 17 -11 3 -20 1 -20 -4
0 -5 -5 -9 -11 -9 -5 0 -7 5 -3 11 4 7 -1 7 -16 -1 -12 -7 -20 -8 -16 -2 3 5
-5 9 -19 9 -14 0 -22 -4 -18 -10 3 -6 1 -7 -5 -3 -7 4 -12 15 -12 24 0 15 -2
15 -10 2 -7 -10 -12 -12 -17 -4 -5 6 -17 10 -27 8 -11 -1 -28 2 -39 8 -14 7
-17 7 -13 -1 5 -7 1 -9 -8 -5 -9 3 -14 9 -12 13 3 4 -5 8 -17 8 -17 2 -19 0
-7 -7 9 -6 10 -10 3 -10 -6 0 -15 5 -18 11 -4 6 -13 8 -21 5 -8 -3 -14 1 -14
10 0 8 -5 12 -10 9 -6 -4 -7 -12 -3 -18 4 -7 0 -6 -10 2 -9 7 -17 10 -17 6 0
-5 -10 0 -22 11 -12 10 -19 14 -15 8 3 -6 0 -11 -8 -11 -8 0 -12 4 -9 8 2 4
-5 13 -17 19 -15 8 -19 9 -15 1 10 -16 -10 -13 -27 4 -12 11 -17 12 -20 2 -3
-7 -6 -5 -6 6 -1 9 -6 17 -12 17 -5 0 -7 -6 -4 -12 4 -7 1 -6 -7 2 -7 9 -23
15 -36 14 -12 -1 -25 3 -29 9 -4 6 -1 7 7 2 9 -5 11 -4 6 4 -6 9 -11 9 -21 1
-9 -7 -16 -6 -25 5 -7 8 -16 12 -21 9 -5 -3 -9 0 -9 5 0 6 -10 11 -22 11 -13
0 -30 5 -38 11 -13 9 -12 10 3 5 10 -3 16 -2 12 3 -5 9 -63 26 -76 23 -4 -1
-18 9 -31 21 -14 13 -31 21 -38 19 -8 -3 -11 1 -7 11 4 11 0 13 -14 10 -14 -4
-19 0 -19 13 0 14 -2 16 -9 6 -6 -10 -10 -9 -14 7 -3 14 -10 19 -21 15 -9 -4
-16 -1 -16 6 0 10 -3 10 -14 1 -12 -10 -13 -8 -9 9 3 11 2 20 -3 19 -23 -4
-45 2 -39 11 3 6 -1 10 -10 10 -8 0 -18 7 -21 15 -4 8 -10 12 -15 9 -8 -5 -13
9 -10 29 0 4 -4 7 -9 7 -6 0 -10 -6 -11 -12 0 -10 -2 -10 -6 0 -2 6 -9 10 -14
7 -5 -4 -6 1 -3 10 4 9 3 15 -2 14 -21 -4 -35 2 -29 11 3 6 1 10 -6 10 -13 0
-49 38 -49 53 0 5 -8 3 -17 -4 -11 -10 -14 -10 -9 -1 4 6 3 12 -3 12 -6 0 -8
7 -5 15 5 11 2 13 -12 8 -11 -4 -15 -3 -10 5 3 6 -3 17 -14 25 -11 7 -17 17
-12 21 4 4 2 7 -3 6 -21 -5 -36 0 -30 10 3 6 1 10 -5 10 -6 0 -8 5 -4 13 5 7
0 6 -11 -3 -10 -8 -16 -10 -12 -3 4 6 3 14 -3 18 -6 4 -8 11 -5 16 3 5 -2 6
-11 2 -12 -4 -15 -3 -10 5 4 7 2 12 -4 12 -6 0 -8 5 -5 10 3 5 -1 10 -10 10
-11 0 -15 5 -11 16 3 8 2 12 -4 9 -6 -3 -10 -1 -10 5 0 6 -4 8 -10 5 -6 -4 -7
1 -3 11 4 12 3 15 -5 10 -7 -4 -12 -2 -12 5 0 6 -8 19 -18 28 -11 9 -22 28
-26 43 -3 15 -19 34 -34 42 -15 9 -21 15 -13 16 9 0 6 6 -7 18 -12 9 -22 24
-24 32 -2 8 -12 21 -23 28 l-20 13 20 -5 c17 -5 16 -3 -4 13 -22 17 -30 33
-33 68 -1 6 -7 9 -15 6 -9 -3 -11 0 -7 10 3 8 -3 30 -12 49 -10 18 -17 37 -15
42 1 5 -4 4 -11 -2 -11 -8 -14 -7 -14 8 0 10 4 16 8 14 4 -3 8 0 8 5 0 6 -6
11 -14 11 -8 0 -18 5 -22 12 -5 7 -2 8 7 3 11 -6 12 -5 2 6 -7 7 -13 21 -13
32 0 10 -5 15 -11 12 -13 -9 -8 27 6 38 6 5 3 7 -7 3 -20 -6 -34 9 -18 19 6 4
3 16 -10 32 -11 14 -20 39 -20 54 0 17 -5 29 -12 29 -9 0 -8 4 2 10 8 5 10 10
4 10 -7 0 -15 7 -18 16 -4 10 -2 13 7 8 6 -4 5 1 -4 12 -8 10 -15 34 -15 51 1
20 -5 35 -14 38 -13 5 -13 7 0 15 13 9 13 10 0 10 -13 0 -13 1 0 10 12 7 12
10 1 10 -7 0 -11 6 -7 15 3 8 -2 19 -12 24 -15 9 -15 10 3 11 11 1 14 4 7 7
-6 2 -10 9 -6 14 3 5 0 9 -7 9 -8 0 -8 4 1 15 9 10 9 15 1 15 -7 0 -10 15 -8
40 3 30 0 40 -12 40 -11 0 -10 4 5 16 10 8 13 13 7 9 -7 -3 -13 -2 -13 2 0 5
6 15 13 22 10 10 8 11 -6 5 -19 -7 -21 14 -2 29 6 4 4 11 -5 17 -13 9 -13 10
0 10 13 0 13 1 0 10 -11 7 -11 10 -2 10 10 0 10 5 1 22 -10 18 -9 20 7 14 14
-4 12 0 -6 14 -20 16 -21 19 -5 13 18 -6 18 -5 6 10 -13 16 -9 21 14 18 6 -1
2 5 -7 12 -14 11 -15 16 -5 27 7 7 7 10 1 7 -6 -3 -11 1 -11 9 0 9 6 13 15 9
12 -4 12 -2 4 8 -7 8 -9 17 -5 20 3 4 1 7 -6 7 -8 0 -7 5 4 16 11 12 13 20 6
27 -7 7 -7 15 0 24 7 7 9 13 5 13 -3 0 -1 11 4 24 6 16 5 27 -3 35 -9 10 -7
17 10 31 18 14 20 19 8 24 -8 3 -15 10 -15 16 0 6 4 8 10 5 6 -4 7 1 3 10 -3
10 0 21 8 26 12 7 12 9 0 9 -11 0 -11 3 0 16 15 18 22 47 9 39 -4 -3 -6 4 -3
15 3 11 10 17 17 13 6 -4 4 2 -4 12 -9 12 -10 16 -2 11 9 -6 11 -1 8 18 -3 15
-1 24 4 21 5 -3 11 -1 15 5 3 5 0 10 -7 10 -10 0 -10 2 1 9 8 5 11 16 8 26 -4
9 -3 13 2 10 5 -3 12 -1 16 5 3 5 1 10 -6 10 -8 0 -7 5 2 17 8 9 9 14 3 10 -6
-3 -11 0 -11 8 0 8 3 13 6 12 3 -1 8 3 9 8 2 6 9 16 15 24 10 12 9 13 -3 7 -9
-5 -9 -2 2 7 9 7 20 28 23 47 7 37 28 73 38 63 4 -3 7 -1 7 5 0 7 -6 12 -12
12 -9 0 -8 3 2 9 8 6 18 7 24 4 5 -3 6 -1 2 5 -4 6 -2 21 5 33 9 17 8 20 -3
14 -7 -4 -2 3 12 15 14 12 20 19 14 16 -6 -3 -11 1 -11 8 0 8 6 12 13 9 8 -3
11 4 10 21 -2 14 0 24 3 23 3 -1 8 2 11 8 3 5 15 20 28 34 12 14 21 30 18 37
-3 7 2 15 10 18 8 3 14 12 14 21 0 8 5 15 11 15 5 0 7 5 4 10 -3 6 1 10 9 10
14 0 20 12 17 33 0 4 3 7 9 7 5 0 10 7 10 16 0 10 6 14 14 11 10 -4 13 0 11
14 -3 15 0 19 10 15 10 -3 12 0 8 11 -4 10 -2 14 4 10 6 -4 14 0 17 9 4 10 2
13 -7 9 -6 -4 -4 0 5 8 10 8 15 17 11 21 -4 4 1 4 12 0 15 -6 17 -4 11 11 -4
11 -4 16 0 12 9 -9 44 22 44 39 0 7 5 16 12 20 7 5 8 3 3 -7 -8 -12 -6 -12 8
0 9 7 14 18 10 24 -4 6 0 8 10 4 9 -3 16 -3 15 1 -1 4 4 17 12 29 11 18 17 20
29 10 11 -9 13 -9 8 0 -4 6 -4 19 -1 28 5 13 8 14 15 3 7 -10 9 -10 9 0 0 19
39 54 53 45 7 -4 7 0 -2 10 -12 15 -11 17 5 18 11 1 22 1 27 0 4 0 7 4 7 10 0
11 42 55 58 61 4 2 6 6 5 10 -2 4 3 5 11 2 8 -3 17 0 22 7 5 8 3 10 -6 4 -9
-5 -11 -4 -6 4 4 6 11 9 16 6 13 -8 41 6 33 18 -4 6 0 8 10 4 11 -4 14 -2 10
9 -3 9 0 12 9 9 9 -4 19 3 26 17 6 13 11 17 11 10 1 -10 5 -10 17 2 8 9 20 14
25 10 5 -3 12 2 15 10 3 9 10 13 15 11 4 -3 14 3 21 15 7 11 19 20 26 20 7 0
10 -5 6 -12 -4 -7 -3 -8 4 -4 7 4 12 14 12 21 0 9 6 12 17 8 10 -4 14 -2 10 4
-4 5 5 15 19 22 20 9 24 9 18 -1 -6 -9 -3 -9 9 1 9 7 14 18 10 25 -3 6 0 6 8
-1 17 -17 30 -17 27 -1 -2 7 4 13 12 13 8 0 14 -7 12 -15 -1 -8 9 -2 23 14 18
19 32 26 46 23 16 -4 18 -3 9 8 -10 11 -8 13 9 10 12 -2 21 1 21 8 0 8 3 8 9
-1 7 -11 9 -10 14 3 4 9 15 15 24 13 11 -2 17 2 15 11 -2 10 1 12 10 5 7 -6
19 -9 26 -8 6 1 17 2 22 3 6 0 10 6 10 12 0 8 -6 7 -17 -2 -16 -13 -17 -12 -4
4 10 13 17 14 26 7 8 -7 16 -7 19 -2 3 6 20 12 38 15 50 8 67 12 74 20 4 4 13
2 20 -4 8 -7 14 -6 20 2 5 8 3 9 -6 4 -9 -5 -11 -4 -6 4 6 9 11 9 21 1 10 -8
14 -7 18 2 4 10 8 10 16 -2 7 -10 11 -11 11 -2 0 6 9 12 21 12 13 0 18 4 13
13 -6 10 -4 10 7 0 7 -7 17 -13 22 -13 4 0 5 6 1 13 -5 9 -4 9 6 0 10 -9 17
-10 27 -2 9 9 13 8 13 0 0 -7 5 -9 10 -6 6 4 7 11 4 17 -4 7 -2 8 5 4 18 -12
61 -15 61 -5 0 5 5 9 11 9 5 0 7 -6 3 -12 -5 -9 -2 -9 9 1 9 7 17 10 17 5 0
-4 5 -3 10 2 12 12 39 12 58 0z m-1534 -51 c-4 -8 -11 -15 -16 -15 -6 0 -5 6
2 15 7 8 14 15 16 15 2 0 1 -7 -2 -15z m788 -117 c-7 -7 -12 -8 -12 -2 0 14
12 26 19 19 2 -3 -1 -11 -7 -17z m-1065 -153 c0 -8 -4 -12 -9 -9 -5 3 -6 10
-3 15 9 13 12 11 12 -6z m3683 -735 c0 -5 -2 -10 -4 -10 -3 0 -8 5 -11 10 -3
6 -1 10 4 10 6 0 11 -4 11 -10z m-3677 -115 c-3 -9 -8 -14 -10 -11 -3 3 -2 9
2 15 9 16 15 13 8 -4z m4272 -355 c3 -5 1 -10 -4 -10 -6 0 -11 5 -11 10 0 6 2
10 4 10 3 0 8 -4 11 -10z m-385 -904 c0 -3 -4 -8 -10 -11 -5 -3 -10 -1 -10 4
0 6 5 11 10 11 6 0 10 -2 10 -4z m155 -266 c3 -5 1 -10 -4 -10 -6 0 -11 5 -11
10 0 6 2 10 4 10 3 0 8 -4 11 -10z m156 -237 c13 -16 12 -17 -3 -4 -17 13 -22
21 -14 21 2 0 10 -8 17 -17z m-3949 -815 c-7 -7 -12 -8 -12 -2 0 14 12 26 19
19 2 -3 -1 -11 -7 -17z m948 -434 c0 -8 -19 -13 -24 -6 -3 5 1 9 9 9 8 0 15
-2 15 -3z m-380 -90 c0 -8 -19 -13 -24 -6 -3 5 1 9 9 9 8 0 15 -2 15 -3z
m1870 -154 c0 -5 -5 -10 -11 -10 -5 0 -7 5 -4 10 3 6 8 10 11 10 2 0 4 -4 4
-10z"/>
<path d="M2737 4599 c7 -7 15 -10 18 -7 3 3 -2 9 -12 12 -14 6 -15 5 -6 -5z"/>
<path d="M2515 3980 c-4 -6 -9 -21 -11 -33 -8 -53 -18 -82 -28 -89 -19 -13 1
-19 28 -9 29 11 37 -4 14 -27 -9 -9 -9 -12 1 -12 10 0 11 -3 2 -14 -8 -10 -8
-16 3 -25 11 -9 14 -6 18 19 3 17 0 30 -6 30 -6 0 -2 7 8 15 10 8 23 12 27 9
5 -3 5 6 0 19 -6 14 -7 28 -4 31 4 3 1 6 -6 6 -7 0 -11 7 -8 15 4 8 2 17 -4
21 -6 3 -8 12 -5 19 7 18 -20 40 -29 25z"/>
<path d="M2597 3784 c-3 -3 -3 -12 -1 -19 6 -14 -12 -15 -32 -2 -6 3 -14 3
-18 -1 -11 -10 -30 -9 -38 3 -5 6 -8 3 -8 -7 0 -11 -7 -15 -25 -14 -13 2 -22
-1 -19 -5 3 -5 -2 -9 -10 -9 -9 0 -16 -4 -16 -8 0 -9 -4 -10 -69 -13 -26 -1
-46 4 -51 12 -7 10 -11 10 -24 0 -9 -8 -16 -10 -16 -5 0 5 -5 2 -10 -6 -7 -11
-10 -11 -10 -2 0 7 -4 10 -10 7 -5 -3 -10 -2 -10 3 0 5 -9 12 -20 15 -11 3
-20 2 -20 -1 0 -4 -38 -7 -85 -6 -57 0 -89 -4 -96 -12 -6 -7 -16 -11 -24 -8
-7 3 -16 1 -20 -5 -3 -6 -23 -11 -44 -11 -20 0 -43 -6 -50 -12 -7 -7 -12 -8
-11 -3 5 24 -1 27 -15 9 -17 -22 -20 -38 -5 -29 5 3 7 0 4 -8 -6 -16 -34 -19
-35 -3 0 6 -4 1 -10 -12 -5 -13 -14 -20 -20 -17 -5 4 -18 0 -27 -8 -9 -8 -25
-13 -35 -12 -11 2 -16 1 -14 -2 8 -7 -16 -32 -25 -26 -5 2 -8 -1 -8 -6 0 -6
-7 -11 -15 -11 -9 0 -18 -7 -21 -15 -4 -8 -13 -15 -21 -15 -8 0 -11 -4 -8 -10
5 -9 -1 -12 -21 -9 -8 1 -44 -42 -44 -53 0 -5 -4 -7 -10 -3 -5 3 -18 -3 -28
-13 -10 -10 -26 -22 -36 -25 -9 -4 -15 -10 -12 -15 2 -4 -5 -9 -16 -9 -12 -1
-24 -7 -28 -13 -4 -6 -11 -10 -16 -9 -5 1 -22 -3 -37 -9 -33 -14 -53 -5 -52
23 0 11 -4 20 -10 20 -5 0 -15 4 -21 8 -7 4 -16 1 -22 -6 -15 -18 -23 -67 -11
-67 6 0 8 -4 5 -9 -7 -11 19 -23 57 -27 19 -2 25 1 20 9 -4 8 -1 7 9 -1 11 -9
18 -10 23 -2 3 6 10 8 15 5 5 -3 12 0 15 6 4 5 14 8 22 5 9 -4 17 1 20 14 4
16 9 18 27 8 11 -6 18 -7 14 -3 -10 10 11 37 23 29 5 -3 9 0 9 5 0 6 7 11 15
11 8 0 15 7 15 15 0 9 6 12 17 8 11 -4 14 -3 9 5 -4 7 -2 12 3 12 6 0 11 7 11
16 0 8 5 12 10 9 6 -4 8 -12 4 -18 -3 -7 6 2 20 18 14 17 26 26 26 21 0 -6 7
-1 16 10 8 10 13 12 9 4 -4 -10 -2 -9 8 3 8 9 18 17 24 17 5 0 19 9 31 20 12
12 22 16 22 10 0 -6 7 -4 17 5 9 10 26 15 40 12 12 -2 23 0 23 6 0 6 3 8 6 5
3 -4 17 0 32 8 19 10 29 10 40 2 10 -9 12 -8 10 2 -2 9 7 14 27 14 17 1 36 8
43 16 8 8 11 9 7 2 -4 -8 1 -11 17 -8 13 2 22 8 21 13 -2 11 58 10 77 -2 8 -5
11 -4 7 2 -9 14 91 9 105 -5 6 -6 17 -8 26 -5 10 4 13 2 8 -5 -4 -7 2 -9 20
-6 16 3 23 1 19 -6 -7 -12 23 -9 44 4 10 7 12 6 6 -4 -6 -10 -4 -11 6 -4 8 4
19 9 25 10 6 1 22 5 34 9 15 5 20 4 16 -4 -4 -6 -2 -11 3 -11 6 0 11 3 11 8 0
12 81 6 90 -7 4 -7 7 -30 6 -52 -1 -21 2 -39 6 -39 4 0 8 -5 8 -11 0 -5 -3 -8
-7 -6 -5 3 -8 -10 -8 -29 0 -19 3 -34 7 -34 4 0 5 -9 3 -20 -2 -11 0 -20 5
-20 12 0 20 29 10 35 -6 4 -10 11 -10 16 0 6 4 8 9 5 9 -6 6 62 -3 71 -3 4 -1
12 6 20 9 11 7 12 -7 7 -15 -6 -16 -4 -6 14 7 13 7 23 1 27 -13 8 -1 35 16 35
8 0 14 -6 14 -12 0 -9 4 -8 10 2 7 11 10 11 10 2 0 -7 4 -11 9 -8 5 3 14 -8
21 -24 7 -17 17 -30 22 -30 6 0 6 -6 -1 -14 -8 -10 -9 -16 -1 -21 5 -3 10 -15
10 -26 0 -10 5 -19 11 -19 5 0 7 -4 4 -10 -3 -5 0 -10 7 -10 10 0 10 -2 -1 -9
-11 -7 -11 -9 0 -14 11 -4 11 -6 0 -6 -11 -1 -10 -5 5 -17 10 -8 13 -13 7 -9
-8 4 -13 0 -13 -10 0 -9 4 -14 9 -11 5 3 9 -7 10 -22 1 -63 9 -97 20 -94 8 1
9 -2 4 -10 -4 -7 -8 -21 -9 -30 -4 -44 -6 -53 -11 -40 -2 6 -11 12 -18 12 -8
0 -16 8 -20 18 -3 9 -18 26 -33 37 -26 18 -26 18 -12 0 14 -18 14 -18 -12 0
-14 11 -24 22 -22 24 2 2 -2 11 -9 19 -8 11 -8 13 0 9 7 -5 10 -1 6 11 -5 22
-60 47 -93 43 -28 -3 -71 -27 -69 -39 6 -34 -3 -72 -16 -72 -8 0 -14 -6 -13
-12 2 -7 -3 -12 -10 -10 -6 1 -11 -4 -10 -10 2 -7 -3 -12 -10 -10 -8 1 -12 -3
-10 -10 3 -7 -7 -24 -21 -37 -14 -13 -20 -20 -13 -17 15 9 16 -10 2 -19 -8 -5
-7 -11 1 -21 8 -10 8 -14 0 -14 -6 0 -10 -6 -9 -12 2 -7 -3 -12 -11 -10 -12 3
-12 1 0 -14 8 -10 10 -15 4 -12 -5 3 -18 -5 -28 -18 -11 -15 -13 -24 -6 -24 8
0 8 -4 -1 -15 -6 -8 -9 -18 -6 -23 3 -5 -2 -19 -12 -33 -9 -13 -15 -37 -13
-52 2 -18 -1 -27 -7 -23 -6 3 -9 -2 -8 -11 2 -10 -4 -24 -13 -31 -9 -8 -10
-11 -3 -7 19 10 14 -14 -10 -48 -12 -17 -16 -27 -7 -22 12 8 12 6 1 -8 -8 -9
-11 -21 -7 -27 4 -6 1 -9 -6 -8 -15 3 -18 -38 -6 -64 5 -12 3 -18 -5 -18 -10
0 -10 -2 1 -9 10 -6 10 -10 1 -16 -9 -6 -9 -10 1 -16 8 -5 9 -9 4 -9 -6 0 -11
-9 -12 -20 -1 -11 2 -18 6 -15 12 7 8 -29 -4 -37 -6 -5 -5 -8 4 -8 11 0 11 -3
1 -15 -10 -12 -10 -15 0 -15 8 0 11 -3 7 -6 -3 -4 0 -22 8 -41 9 -21 10 -31 3
-27 -7 4 -8 3 -4 -4 12 -20 15 -52 5 -52 -6 0 -7 -6 -1 -17 6 -10 6 -29 1 -47
-6 -20 -5 -32 3 -37 9 -6 8 -11 -1 -23 -9 -11 -10 -16 -2 -16 6 0 11 -5 11
-11 0 -5 -6 -7 -12 -4 -7 4 -4 -1 6 -9 11 -9 15 -16 8 -16 -7 0 -4 -13 9 -34
24 -41 31 -73 18 -81 -5 -4 -9 0 -9 7 -1 9 -5 7 -14 -4 -7 -10 -16 -15 -20
-11 -3 4 -13 -2 -22 -13 -8 -10 -13 -13 -9 -6 3 6 1 12 -4 12 -6 0 -11 -4 -11
-10 0 -5 -11 -12 -25 -16 -14 -3 -23 -10 -20 -14 2 -4 -7 -5 -21 -2 -14 2 -24
1 -23 -4 3 -20 -2 -28 -10 -16 -6 11 -11 10 -25 -3 -10 -10 -25 -15 -37 -12
-13 3 -19 1 -16 -6 2 -7 -9 -18 -25 -24 -18 -8 -27 -17 -22 -24 4 -8 3 -9 -5
-5 -6 4 -14 0 -17 -8 -3 -9 -10 -13 -15 -10 -5 3 -9 0 -9 -6 0 -6 -5 -8 -12
-4 -7 4 -8 3 -4 -4 7 -12 -29 -54 -38 -44 -3 3 -6 0 -6 -7 0 -7 -5 -9 -10 -6
-6 4 -9 3 -8 -2 4 -10 -59 -73 -72 -73 -6 0 -9 -3 -9 -7 3 -20 -2 -34 -10 -28
-6 3 -14 -3 -20 -12 -6 -10 -11 -14 -11 -9 0 5 -9 -1 -20 -14 -11 -13 -20 -20
-20 -16 0 4 -12 -7 -27 -26 -15 -18 -33 -37 -40 -41 -7 -4 -13 -14 -13 -22 0
-8 -5 -17 -12 -21 -7 -5 -9 -2 -4 7 4 8 0 5 -8 -5 -12 -15 -16 -16 -16 -5 -1
11 -3 10 -10 -3 -6 -9 -19 -15 -30 -13 -11 2 -19 -1 -17 -8 1 -6 -4 -12 -10
-13 -7 -1 -17 -2 -23 -3 -5 0 -10 -8 -10 -18 0 -9 -3 -14 -6 -10 -3 3 -26 -14
-50 -39 -25 -24 -49 -42 -53 -39 -5 3 -12 -2 -15 -11 -3 -8 -11 -12 -17 -8 -7
4 -9 3 -6 -3 4 -6 -1 -17 -10 -24 -14 -12 -16 -12 -8 1 6 11 4 11 -11 -2 -10
-9 -23 -17 -27 -16 -5 0 -12 -4 -15 -8 -4 -4 0 -4 8 0 10 5 10 3 -2 -6 -9 -8
-18 -23 -20 -33 -1 -11 -7 -24 -13 -28 -6 -5 -1 -7 12 -4 15 3 20 1 16 -9 -3
-8 1 -14 10 -14 27 0 47 12 40 24 -4 6 0 6 9 -2 12 -9 18 -10 23 -2 5 8 11 7
23 -2 14 -11 15 -10 9 12 -6 24 -5 24 8 6 8 -11 15 -15 15 -9 0 6 11 14 25 17
14 4 25 11 25 17 0 6 5 7 10 4 5 -3 10 -1 10 5 0 6 12 8 31 5 22 -4 28 -2 23
6 -4 8 -3 9 4 5 20 -12 52 -15 52 -5 0 6 4 7 10 4 5 -3 18 -1 27 4 15 8 15 11
3 12 -8 1 -19 1 -23 0 -5 -1 -6 3 -2 8 3 6 12 8 20 5 11 -4 13 1 9 21 -3 20
-1 25 8 19 10 -5 10 -4 1 6 -10 11 -8 17 9 31 11 10 25 16 31 12 5 -3 8 -2 4
3 -3 5 6 14 19 21 18 8 23 8 18 0 -3 -7 1 -4 9 6 16 19 32 24 21 5 -4 -7 -3
-8 5 -4 6 4 9 12 6 17 -4 5 6 9 21 9 23 0 25 2 13 17 -13 14 -12 15 6 7 11 -5
44 -9 73 -9 41 0 51 -3 47 -14 -4 -11 -2 -11 9 -2 9 8 16 8 20 2 4 -6 14 -7
23 -4 22 9 77 8 91 -1 7 -4 12 -2 12 4 0 6 5 8 10 5 6 -3 10 -1 10 6 0 9 3 9
14 0 8 -7 17 -8 20 -3 3 5 17 8 31 7 14 -2 25 1 25 5 0 5 15 9 33 9 65 0 77 1
77 9 0 5 6 9 13 10 29 2 72 14 84 23 7 6 17 8 23 4 5 -3 10 -1 10 5 0 6 5 8
10 5 6 -3 10 -1 10 5 0 6 4 9 9 6 5 -4 12 0 15 6 2 7 3 2 2 -12 -2 -15 -10
-25 -18 -24 -10 1 -14 -8 -13 -27 1 -15 -2 -26 -7 -23 -4 3 -11 -3 -15 -13 -4
-10 -14 -25 -23 -33 -13 -12 -13 -13 0 -5 12 8 13 7 3 -5 -7 -10 -32 -17 -65
-19 -85 -5 -87 -5 -82 -13 5 -7 -36 -13 -59 -9 -4 1 -16 -3 -26 -8 -12 -7 -22
-6 -29 1 -8 8 -13 7 -18 -6 -4 -10 -13 -14 -23 -11 -10 3 -27 -4 -39 -15 -12
-12 -22 -16 -22 -9 0 8 -4 8 -15 -1 -8 -7 -15 -9 -15 -4 0 4 -7 -1 -16 -12 -8
-10 -13 -13 -9 -7 4 9 1 11 -9 7 -9 -3 -16 -10 -16 -16 0 -5 -4 -6 -10 -3 -5
3 -10 2 -10 -4 0 -6 -7 -7 -17 -4 -10 4 -14 2 -10 -4 4 -6 -1 -17 -10 -24 -14
-12 -15 -12 -9 -1 7 11 4 12 -13 2 -12 -6 -19 -15 -16 -21 4 -5 -1 -9 -9 -9
-15 0 -21 -12 -17 -33 1 -5 -3 -6 -9 -2 -5 3 -10 1 -10 -4 0 -19 -2 -26 -11
-42 -5 -11 -2 -23 12 -38 13 -14 15 -21 7 -22 -7 0 -3 -5 10 -11 12 -6 22 -17
22 -25 0 -8 4 -12 9 -8 5 3 16 -2 24 -10 9 -8 23 -15 31 -15 9 0 16 -5 16 -11
0 -5 5 -7 10 -4 6 3 10 1 10 -4 0 -6 5 -11 11 -11 5 0 7 6 4 13 -4 6 0 4 9 -7
8 -10 26 -19 39 -20 14 0 23 -5 20 -10 -3 -4 4 -5 16 -1 14 4 21 3 19 -6 -2
-6 10 -13 25 -16 20 -3 27 0 22 7 -4 7 1 6 14 -2 12 -7 21 -17 21 -22 0 -4 9
-6 20 -3 11 3 22 1 25 -4 3 -4 13 -5 22 -2 12 5 14 3 8 -8 -8 -12 -6 -12 8 0
14 11 17 11 17 0 0 -11 2 -11 10 1 6 9 10 10 10 3 0 -8 14 -11 39 -10 22 1 37
-1 35 -5 -7 -11 4 -10 28 3 11 6 18 7 15 2 -3 -5 9 -9 28 -9 19 0 32 3 29 7
-5 8 35 3 43 -5 3 -3 16 -1 30 5 13 5 22 5 19 0 -3 -5 1 -11 9 -14 8 -4 12 -1
9 6 -3 8 4 13 15 13 11 0 17 -4 14 -9 -3 -5 4 -6 16 -2 12 4 28 2 36 -5 10 -8
15 -8 21 1 4 8 3 9 -4 5 -7 -4 -12 -2 -12 4 0 7 8 9 21 5 33 -11 89 -11 89 -1
0 4 8 2 17 -5 15 -12 16 -12 10 6 -7 19 -6 19 7 3 13 -18 32 -26 22 -10 -3 5
1 9 8 9 9 0 12 -7 8 -16 -5 -13 -3 -14 9 -4 8 6 31 10 52 9 31 -3 37 0 32 12
-4 11 -2 12 7 5 16 -12 74 -11 85 1 4 5 3 6 -3 3 -6 -3 -11 0 -11 8 0 11 5 10
24 -2 14 -9 23 -11 23 -4 0 5 6 8 14 5 8 -3 17 0 21 6 6 9 10 9 16 -1 7 -11 9
-11 9 -1 0 7 5 10 10 7 6 -3 10 0 10 7 0 9 3 9 10 -2 5 -8 10 -10 10 -3 0 6
13 10 31 9 21 -2 33 4 40 17 6 10 17 16 25 13 8 -3 14 -1 14 5 0 6 5 7 10 4 6
-3 10 -1 10 4 0 6 9 11 19 11 11 0 23 5 27 12 5 7 3 8 -6 3 -9 -5 -11 -4 -6 4
6 9 11 9 24 -1 13 -11 15 -11 10 3 -5 13 -2 16 14 11 16 -4 19 -2 13 8 -6 10
-3 12 13 8 12 -3 20 -3 19 2 -1 4 7 16 18 26 12 11 16 17 10 14 -6 -3 -3 2 6
11 19 17 23 69 5 69 -6 0 -4 5 4 10 11 7 11 10 2 10 -8 0 -10 5 -6 12 5 8 2 9
-10 5 -9 -4 -15 -3 -11 3 5 8 -6 20 -63 71 -10 8 -24 13 -30 11 -7 -2 -12 1
-12 8 0 6 -5 8 -11 4 -7 -4 -10 -1 -7 7 3 8 14 13 24 12 18 -1 18 -1 1 12 -15
11 -16 15 -5 26 8 8 13 24 12 37 -1 12 3 22 7 22 5 0 9 5 9 11 0 5 -4 7 -10 4
-5 -3 -7 0 -4 8 3 8 1 18 -5 22 -8 4 -8 12 -1 25 7 14 7 21 -2 27 -7 4 -13 15
-13 23 0 8 -5 14 -11 13 -7 -1 -10 5 -7 16 2 9 -2 23 -11 30 -8 7 -12 19 -9
27 3 8 0 14 -6 14 -6 0 -11 5 -11 11 0 5 4 8 9 5 5 -4 4 5 -2 19 -7 14 -15 25
-19 25 -4 0 -5 9 -3 20 2 11 1 19 -3 17 -4 -1 -9 3 -10 8 -2 6 -8 16 -14 23
-6 6 -7 12 -2 12 4 0 -1 7 -12 15 -10 8 -15 15 -10 15 5 0 -1 9 -14 20 -13 11
-20 20 -15 20 4 0 -3 9 -16 21 -13 11 -18 17 -10 13 9 -5 12 -3 7 4 -4 7 -14
12 -22 12 -8 0 -12 5 -9 10 3 6 1 10 -6 10 -12 0 -63 50 -51 50 4 0 1 4 -5 8
-17 11 -63 104 -57 114 3 5 2 8 -3 7 -4 -1 -13 -1 -19 0 -13 1 -15 110 -2 135
8 14 7 17 -3 11 -8 -6 -10 -4 -3 6 13 21 14 39 1 39 -8 0 -9 3 -2 8 15 10 16
52 2 52 -7 0 -6 4 3 10 12 8 12 10 1 10 -11 0 -11 3 -1 15 10 12 10 15 -1 15
-12 0 -12 2 -1 9 8 4 14 12 14 16 0 4 -6 12 -14 16 -11 7 -11 9 1 9 11 0 11 3
0 17 -8 9 -9 14 -3 10 6 -3 11 0 11 8 0 8 -4 12 -7 10 -4 -3 -8 14 -8 37 -1
22 -4 44 -9 47 -4 3 -8 12 -9 19 -1 6 -2 20 -2 30 -1 10 -11 28 -22 40 -13 14
-16 22 -8 22 9 0 9 3 -2 10 -8 5 -11 10 -6 10 4 0 -2 9 -15 20 -13 10 -20 19
-15 20 5 0 1 10 -10 22 -10 12 -13 18 -6 14 9 -6 11 -1 8 18 -3 14 0 29 6 32
7 5 8 2 3 -6 -5 -9 -4 -11 4 -6 9 6 9 11 1 21 -12 14 -3 48 11 39 5 -3 6 2 3
11 -4 8 0 22 7 31 7 8 8 14 3 12 -5 -2 -9 2 -9 7 0 5 3 9 6 8 4 -1 5 6 2 17
-3 12 1 22 9 25 9 4 14 16 12 32 -3 29 5 55 15 49 3 -2 6 15 5 37 0 48 5 69
15 62 13 -7 7 60 -6 68 -7 4 -10 14 -6 22 3 9 0 21 -6 29 -6 7 -8 16 -4 19 3
4 1 7 -6 7 -7 0 -10 4 -6 9 3 5 -2 16 -10 24 -11 12 -12 17 -2 20 9 4 9 6 0 6
-7 1 -13 8 -13 16 0 8 -4 15 -9 15 -5 0 -12 7 -15 16 -4 10 -2 13 6 8 7 -5 8
-3 2 7 -5 8 -9 19 -9 24 -1 6 -6 9 -12 8 -5 -1 -9 9 -7 22 1 14 -2 25 -7 25
-6 0 -7 5 -4 10 3 6 1 10 -5 10 -6 0 -8 5 -5 10 3 6 2 10 -4 10 -5 0 -8 8 -6
18 2 9 4 24 4 32 1 12 3 13 10 1 6 -9 11 -10 15 -2 4 6 12 9 17 5 6 -3 18 1
28 10 19 18 61 29 98 29 13 -1 20 4 17 9 -4 6 0 7 12 1 22 -10 74 -10 91 0 6
4 15 2 19 -4 5 -8 8 -8 14 0 3 7 14 9 23 5 9 -3 14 -10 11 -15 -3 -5 3 -8 13
-7 36 3 54 -2 47 -13 -4 -8 0 -8 15 0 14 8 21 8 21 1 0 -5 9 -10 21 -10 13 0
18 -4 13 -12 -5 -7 -3 -8 7 -3 19 12 64 10 62 -2 -1 -6 6 -9 18 -6 13 4 30 -3
46 -18 14 -13 23 -17 19 -9 -4 8 1 4 12 -9 10 -13 24 -21 30 -17 5 3 12 -1 16
-9 3 -8 12 -15 21 -15 8 0 15 -4 15 -10 0 -5 3 -9 8 -8 12 3 62 -24 62 -34 0
-4 9 -8 21 -8 13 0 18 -4 13 -12 -5 -8 0 -9 14 -6 13 4 22 1 22 -5 1 -7 21
-22 46 -34 25 -13 42 -17 38 -10 -5 8 -2 7 9 -2 13 -10 20 -11 31 -2 9 8 16 8
20 2 8 -12 53 5 77 29 13 13 14 18 2 28 -7 7 -11 17 -8 21 2 5 -4 11 -15 14
-11 3 -18 2 -15 -3 3 -4 -2 -11 -11 -14 -8 -3 -13 -10 -9 -15 3 -6 -4 -15 -15
-21 -16 -9 -24 -8 -36 5 -17 17 -39 21 -29 5 3 -6 -1 -7 -9 -4 -9 3 -13 10
-10 15 3 5 -2 9 -10 9 -9 0 -16 4 -16 10 0 5 -6 7 -13 4 -7 -2 -23 5 -35 16
-12 11 -22 18 -22 15 0 -4 -7 1 -16 9 -8 9 -21 13 -27 9 -7 -3 -9 -3 -5 1 10
11 -25 43 -41 38 -9 -4 -12 -1 -7 6 4 7 1 12 -8 12 -9 0 -16 5 -16 11 0 6 -7
8 -16 5 -8 -3 -12 -2 -9 4 3 6 -1 10 -9 10 -9 0 -16 4 -16 10 0 5 -7 6 -17 3
-11 -4 -14 -3 -9 5 4 7 1 12 -8 12 -9 0 -16 5 -16 10 0 6 -3 9 -7 8 -5 -1 -18
3 -29 10 -12 6 -24 8 -28 5 -3 -3 -6 1 -6 9 0 11 -8 15 -25 14 -13 -2 -23 0
-20 4 8 13 -36 40 -65 40 -16 0 -32 5 -35 10 -4 7 -13 7 -24 0 -10 -5 -22 -5
-27 0 -5 4 -25 10 -44 11 -19 2 -41 7 -47 12 -8 6 -13 6 -13 0 0 -5 -9 -9 -20
-10 -11 -1 -20 2 -20 7 0 4 -11 7 -25 6 -14 0 -25 -5 -25 -11 0 -5 -4 -4 -9 4
-8 12 -12 12 -24 2 -11 -9 -17 -9 -22 -1 -5 8 -13 6 -27 -7 -11 -10 -21 -17
-22 -16 0 1 -13 6 -28 12 -19 7 -28 7 -32 -2 -3 -9 -5 -8 -5 1 -1 7 -5 10 -11
7 -5 -3 -10 -1 -10 6 0 6 -8 9 -20 6 -11 -3 -18 0 -17 6 2 11 -5 14 -49 16
-14 0 -22 5 -19 11 7 11 2 14 -8 4z m-350 -909 c0 -8 -4 -12 -9 -9 -5 3 -6 10
-3 15 9 13 12 11 12 -6z m533 -1435 c-9 -6 -9 -9 -1 -13 8 -4 8 -5 0 -3 -7 1
-13 9 -15 18 -1 11 3 15 13 11 11 -4 12 -8 3 -13z m50 -20 c0 -5 5 -10 10 -10
6 0 21 -10 33 -21 12 -12 16 -19 10 -15 -8 4 -13 2 -13 -5 0 -7 -7 -4 -16 7
-8 10 -13 13 -9 7 3 -7 1 -13 -4 -13 -6 0 -11 5 -11 11 0 8 -5 8 -15 -1 -12
-10 -15 -10 -15 1 0 10 -3 10 -11 2 -16 -16 -39 -5 -39 18 0 10 1 19 3 19 1 0
17 -4 35 -10 28 -7 33 -7 28 5 -3 8 -1 15 4 15 6 0 10 -4 10 -10z m-820 -104
c0 -3 -4 -8 -10 -11 -5 -3 -10 -1 -10 4 0 6 5 11 10 11 6 0 10 -2 10 -4z
m1063 -220 c4 -10 1 -13 -8 -9 -8 3 -12 9 -9 14 7 12 11 11 17 -5z m44 -168
c-3 -8 -6 -5 -6 6 -1 11 2 17 5 13 3 -3 4 -12 1 -19z"/>
<path d="M2520 3347 c0 -2 6 -10 14 -16 11 -9 16 -9 22 1 4 7 4 10 -1 6 -4 -4
-14 -3 -22 3 -7 6 -13 9 -13 6z"/>
<path d="M2030 2959 c0 -5 5 -7 10 -4 6 3 10 8 10 11 0 2 -4 4 -10 4 -5 0 -10
-5 -10 -11z"/>
<path d="M3025 2940 c-3 -6 1 -7 9 -4 18 7 21 14 7 14 -6 0 -13 -4 -16 -10z"/>
<path d="M2955 2901 c-3 -5 -2 -12 3 -15 5 -3 9 1 9 9 0 17 -3 19 -12 6z"/>
<path d="M2921 2876 c-9 -11 -9 -16 1 -22 7 -4 10 -4 6 1 -4 4 -3 14 3 22 6 7
9 13 6 13 -2 0 -10 -6 -16 -14z"/>
<path d="M2833 2825 c0 -8 4 -12 9 -9 5 3 6 10 3 15 -9 13 -12 11 -12 -6z"/>
<path d="M745 1600 c3 -5 8 -10 11 -10 2 0 4 5 4 10 0 6 -5 10 -11 10 -5 0 -7
-4 -4 -10z"/>
<path d="M3906 1105 c-11 -8 -15 -15 -9 -15 6 0 16 7 23 15 16 19 11 19 -14 0z"/>
<path d="M3727 963 c-4 -3 -7 -11 -7 -17 0 -6 5 -5 12 2 6 6 9 14 7 17 -3 3
-9 2 -12 -2z"/>
<path d="M1735 730 c3 -5 8 -10 11 -10 2 0 4 5 4 10 0 6 -5 10 -11 10 -5 0 -7
-4 -4 -10z"/>
<path d="M3840 4549 c0 -5 5 -7 10 -4 6 3 10 8 10 11 0 2 -4 4 -10 4 -5 0 -10
-5 -10 -11z"/>
<path d="M569 4193 c-13 -16 -12 -17 4 -4 9 7 17 15 17 17 0 8 -8 3 -21 -13z"/>
<path d="M4300 4006 c0 -2 7 -6 15 -10 8 -3 15 -1 15 4 0 6 -7 10 -15 10 -8 0
-15 -2 -15 -4z"/>
<path d="M176 3087 c3 -10 9 -15 12 -12 3 3 0 11 -7 18 -10 9 -11 8 -5 -6z"/>
<path d="M182 1766 c7 -8 15 -12 17 -11 5 6 -10 25 -20 25 -5 0 -4 -6 3 -14z"/>
<path d="M1035 720 c-3 -5 -1 -10 4 -10 6 0 11 5 11 10 0 6 -2 10 -4 10 -3 0
-8 -4 -11 -10z"/>
<path d="M1890 420 c0 -5 5 -10 11 -10 5 0 7 5 4 10 -3 6 -8 10 -11 10 -2 0
-4 -4 -4 -10z"/>
<path d="M2545 150 c-10 -11 -14 -20 -9 -20 5 0 15 9 22 20 7 11 11 20 9 20
-2 0 -12 -9 -22 -20z"/>
</g>
</svg>
